<?xml version="1.0" standalone="no"?>
<!DOCTYPE svg PUBLIC "-//W3C//DTD SVG 20010904//EN"
 "http://www.w3.org/TR/2001/REC-SVG-20010904/DTD/svg10.dtd">
<svg version="1.0" xmlns="http://www.w3.org/2000/svg"
 width="3300.000000pt" height="3300.000000pt" viewBox="0 0 3300.000000 3300.000000"
 preserveAspectRatio="xMidYMid meet">
<metadata>
Created by potrace 1.14, written by Peter Selinger 2001-2017
</metadata>
<g transform="translate(0.000000,3300.000000) scale(0.100000,-0.100000)"
fill="#000000" stroke="none">
<path d="M16078 32395 c-3 -3 -50 -7 -104 -10 -54 -2 -110 -7 -124 -10 -14 -3
-32 -8 -40 -10 -8 -2 -15 -4 -15 -5 0 -1 -13 -4 -30 -5 -33 -4 -66 -11 -98
-21 -12 -4 -29 -8 -37 -9 -50 -5 -110 -18 -110 -24 0 -4 -12 -8 -27 -9 -29 -3
-68 -9 -68 -12 0 -3 -48 -10 -89 -14 -22 -1 -48 -6 -56 -9 -8 -3 -46 -8 -84
-11 -37 -4 -72 -8 -76 -11 -5 -3 -12 -1 -15 5 -5 8 -11 7 -21 -1 -11 -9 -14
-9 -14 0 0 7 -5 9 -12 5 -25 -16 -356 -22 -367 -7 -6 9 -40 11 -256 17 -77 2
-144 1 -150 -3 -16 -9 -69 -8 -82 1 -7 5 -14 5 -18 -2 -3 -6 -10 -8 -15 -5 -5
3 -11 1 -15 -5 -4 -6 -11 -8 -16 -5 -5 4 -15 3 -21 -2 -16 -9 -32 -12 -85 -15
-24 -2 -43 -6 -43 -11 0 -4 -3 -6 -7 -6 -5 1 -10 0 -13 -1 -3 -1 -21 -3 -40
-5 -42 -3 -87 -12 -97 -18 -10 -6 -79 -18 -113 -20 -14 -1 -29 -8 -33 -14 -4
-7 -12 -13 -17 -13 -5 0 -19 -4 -32 -9 -13 -5 -27 -10 -33 -11 -5 -1 -16 -6
-22 -12 -7 -6 -13 -8 -13 -5 0 3 -30 -10 -67 -29 -36 -18 -70 -31 -75 -28 -4
3 -8 1 -8 -3 0 -9 -73 -45 -98 -49 -7 -1 -23 -9 -35 -17 -19 -12 -52 -23 -84
-29 -5 0 -24 -11 -43 -22 -19 -12 -53 -30 -75 -41 -22 -11 -48 -28 -59 -37
-10 -10 -23 -15 -28 -12 -4 3 -8 1 -8 -4 0 -8 -71 -45 -92 -48 -4 -1 -11 -3
-15 -4 -5 -1 -11 -2 -15 -1 -5 0 -8 -3 -8 -9 0 -5 -7 -10 -15 -10 -8 0 -15 -4
-15 -8 0 -4 -27 -21 -60 -36 -33 -16 -60 -32 -60 -36 0 -4 -11 -11 -25 -14
-14 -4 -25 -11 -25 -16 0 -6 -7 -10 -15 -10 -8 0 -15 -4 -15 -10 0 -5 -6 -10
-12 -10 -18 0 -122 -43 -126 -52 -2 -4 -54 -32 -115 -63 -62 -30 -140 -70
-174 -89 -35 -19 -63 -33 -63 -30 0 10 -60 -27 -69 -43 -6 -10 -11 -14 -11 -9
0 4 -18 -10 -40 -32 -22 -22 -55 -45 -72 -52 -51 -19 -70 -27 -108 -43 -19 -9
-38 -13 -42 -11 -4 3 -8 1 -8 -5 0 -5 -10 -13 -22 -17 -13 -4 -26 -11 -29 -16
-3 -5 -12 -11 -20 -12 -14 -3 -65 -25 -125 -52 -17 -8 -40 -23 -50 -32 -33
-30 -94 -73 -94 -67 0 3 -6 0 -14 -7 -8 -7 -13 -14 -11 -16 2 -2 -23 -31 -55
-65 -32 -34 -77 -84 -99 -110 -23 -27 -41 -45 -41 -40 -1 4 -7 -4 -15 -19 -8
-15 -24 -29 -35 -33 -11 -3 -20 -11 -20 -16 0 -6 -4 -7 -10 -4 -5 3 -10 1 -10
-5 0 -18 -78 -80 -100 -80 -6 0 -9 -4 -6 -9 3 -5 -9 -15 -27 -22 -33 -13 -79
-43 -107 -69 -8 -8 -32 -24 -53 -35 -20 -11 -37 -23 -37 -27 0 -5 -6 -8 -14
-8 -8 0 -16 -7 -20 -15 -5 -15 -53 -40 -69 -36 -5 1 -6 -3 -2 -9 3 -5 2 -10
-3 -10 -5 0 -28 -18 -51 -40 -22 -22 -45 -40 -49 -40 -4 0 -29 -21 -55 -46
-26 -25 -47 -42 -47 -37 0 4 -5 0 -11 -9 -5 -10 -17 -18 -25 -18 -8 0 -12 -4
-9 -10 3 -5 -1 -10 -9 -10 -9 0 -16 -4 -16 -9 0 -13 -79 -96 -89 -94 -5 1 -12
-9 -15 -23 -4 -14 -11 -22 -16 -19 -6 3 -10 0 -10 -8 0 -9 -21 -38 -47 -65
-27 -28 -49 -55 -51 -62 -3 -14 -52 -60 -63 -60 -5 0 -9 -6 -9 -14 0 -17 -57
-76 -72 -76 -6 0 -9 -3 -5 -6 6 -6 -17 -36 -80 -101 -24 -24 -48 -54 -55 -66
-17 -33 -83 -109 -185 -215 -51 -52 -93 -98 -93 -101 0 -3 -14 -15 -30 -26
-17 -11 -33 -28 -36 -37 -3 -10 -13 -18 -21 -18 -9 0 -13 -3 -10 -6 3 -4 -8
-21 -26 -39 -51 -52 -81 -88 -96 -118 -8 -15 -19 -27 -25 -27 -11 0 -31 -26
-35 -45 -1 -5 -9 -14 -17 -18 -8 -5 -12 -12 -9 -18 4 -5 1 -9 -4 -9 -6 0 -11
-9 -11 -21 0 -11 -4 -18 -8 -15 -5 3 -24 -24 -43 -59 -19 -36 -37 -65 -41 -65
-5 0 -8 -5 -8 -10 0 -6 -9 -20 -20 -32 -10 -12 -17 -25 -14 -30 3 -4 0 -8 -6
-8 -6 0 -9 -4 -5 -9 3 -5 0 -13 -6 -16 -5 -4 -8 -14 -5 -22 3 -8 1 -11 -4 -8
-6 3 -10 0 -10 -7 0 -12 -14 -42 -88 -190 -22 -46 -29 -68 -20 -68 8 0 9 -3 3
-8 -16 -11 -41 -62 -60 -122 -10 -30 -24 -64 -32 -76 -7 -11 -10 -24 -6 -27 3
-4 1 -7 -5 -7 -7 0 -11 -3 -10 -7 4 -14 -14 -88 -27 -113 -7 -14 -27 -59 -45
-100 -18 -41 -36 -82 -41 -90 -30 -53 -57 -110 -53 -110 3 0 -3 -13 -12 -29
-10 -17 -21 -28 -26 -25 -4 3 -5 -1 -2 -9 3 -8 1 -18 -5 -22 -6 -3 -11 -13
-11 -21 0 -9 -6 -22 -12 -29 -31 -34 -36 -43 -31 -49 4 -3 1 -6 -6 -6 -7 0 -9
-4 -6 -10 3 -5 1 -10 -4 -10 -6 0 -11 -6 -11 -13 0 -7 -11 -29 -25 -48 -13
-20 -21 -39 -18 -43 4 -3 2 -6 -4 -6 -8 0 -23 -31 -22 -48 0 -1 -6 -9 -13 -17
-30 -33 -37 -45 -58 -90 -12 -26 -30 -57 -41 -68 -10 -12 -19 -27 -19 -34 0
-7 -5 -13 -11 -13 -5 0 -8 -3 -6 -7 2 -5 -4 -21 -14 -38 -29 -48 -62 -110 -61
-115 1 -3 -5 -15 -13 -27 -33 -49 -57 -99 -61 -123 -3 -14 -10 -29 -17 -35 -7
-5 -17 -21 -23 -35 -7 -14 -22 -49 -35 -77 -13 -29 -27 -53 -31 -53 -4 0 -5
-7 -2 -15 4 -8 1 -15 -6 -15 -7 0 -10 -7 -6 -15 3 -8 1 -15 -5 -15 -6 0 -8 -4
-5 -9 4 -5 -3 -30 -14 -55 -10 -25 -17 -46 -13 -46 3 0 0 -7 -7 -15 -7 -8 -10
-15 -6 -15 4 0 0 -13 -9 -30 -8 -16 -16 -33 -16 -37 0 -5 -5 -13 -10 -19 -9
-12 -20 -46 -21 -71 -1 -7 -5 -13 -10 -13 -5 0 -6 -4 -3 -10 3 -5 2 -10 -3
-10 -6 0 -18 -26 -28 -57 -10 -32 -24 -64 -31 -71 -12 -13 -17 -27 -14 -44 0
-5 -3 -8 -9 -8 -5 0 -10 -4 -10 -10 0 -9 -39 -72 -60 -97 -5 -7 -10 -15 -10
-18 0 -3 -12 -19 -27 -36 -16 -17 -27 -35 -25 -40 1 -5 -3 -9 -10 -9 -6 0 -9
-3 -6 -6 8 -8 -44 -100 -65 -115 -5 -3 -8 -9 -8 -13 1 -3 1 -7 0 -8 0 -2 -2
-10 -4 -18 -1 -8 -12 -31 -24 -50 -27 -45 -42 -79 -48 -110 -2 -13 -8 -29 -14
-36 -5 -6 -6 -14 -2 -17 3 -4 1 -7 -5 -7 -7 0 -12 -9 -12 -20 0 -11 -4 -20
-10 -20 -5 0 -7 -7 -4 -15 4 -8 2 -15 -3 -15 -5 0 -10 -11 -11 -25 -1 -14 -11
-43 -21 -64 -11 -21 -17 -41 -14 -45 4 -3 1 -6 -5 -6 -6 0 -9 -6 -6 -14 3 -8
0 -24 -6 -36 -9 -17 -9 -21 0 -15 9 6 9 3 2 -11 -6 -11 -10 -22 -11 -26 -1 -5
-1 -9 -2 -10 0 -2 -2 -14 -5 -28 -2 -14 -12 -52 -20 -85 -9 -33 -17 -68 -18
-77 -1 -10 -5 -21 -9 -24 -3 -4 -2 -15 4 -25 7 -13 6 -19 -2 -19 -6 0 -9 -7
-6 -15 4 -8 1 -17 -4 -21 -6 -3 -9 -15 -6 -25 3 -11 2 -19 -2 -19 -4 0 -8 -15
-8 -32 0 -18 -3 -46 -7 -63 -4 -16 -9 -43 -12 -60 -2 -16 -9 -52 -15 -80 -11
-46 -19 -104 -20 -147 0 -10 -3 -18 -7 -18 -4 0 -7 -26 -7 -58 0 -31 -2 -61
-5 -67 -7 -16 -11 -45 -14 -115 -2 -36 -5 -65 -6 -65 -6 0 -4 -117 2 -121 5
-3 3 -14 -2 -25 -6 -11 -8 -24 -5 -29 3 -6 0 -10 -7 -10 -8 0 -9 -3 -3 -8 6
-4 10 -24 10 -45 -1 -21 3 -41 7 -43 5 -3 5 -11 1 -17 -8 -14 -11 -68 -4 -82
10 -17 8 -85 -2 -85 -5 0 -5 -6 1 -13 7 -8 7 -18 2 -27 -5 -9 -5 -19 1 -26 13
-15 18 -76 24 -288 3 -92 10 -177 16 -187 5 -11 7 -19 3 -19 -3 0 -2 -6 4 -12
6 -7 10 -17 10 -23 0 -5 4 -35 8 -65 4 -30 8 -71 10 -90 6 -75 12 -102 20
-109 5 -3 11 -22 13 -41 6 -52 8 -64 14 -80 3 -8 8 -35 11 -60 2 -25 7 -58 10
-75 4 -16 8 -55 10 -85 3 -30 5 -55 6 -55 4 0 10 -131 13 -277 1 -82 4 -148 7
-148 3 0 6 -9 7 -20 1 -11 -3 -20 -8 -20 -6 0 -8 -4 -5 -8 7 -11 17 -106 19
-174 1 -32 6 -58 10 -58 5 0 7 -15 6 -33 -2 -18 0 -38 5 -45 4 -6 3 -12 -3
-12 -6 0 -4 -20 5 -50 8 -28 12 -55 9 -60 -3 -6 -2 -10 3 -10 6 0 8 -16 6 -35
-1 -19 1 -37 6 -40 4 -3 11 -24 15 -48 4 -23 9 -51 12 -62 5 -25 11 -58 18
-110 3 -22 8 -51 11 -65 3 -14 7 -47 9 -75 2 -27 4 -50 5 -50 3 0 9 -38 14
-90 3 -27 9 -66 12 -85 4 -19 8 -58 9 -86 2 -28 8 -60 13 -71 8 -15 8 -23 -1
-32 -8 -8 -8 -14 -2 -19 6 -4 11 -20 12 -37 8 -94 13 -144 20 -180 4 -22 6
-43 5 -47 -1 -5 3 -8 8 -8 7 0 7 -6 1 -19 -6 -10 -8 -21 -5 -23 6 -7 14 -44
19 -93 2 -22 4 -40 5 -40 1 0 3 -17 5 -39 2 -21 8 -43 13 -50 5 -6 10 -31 11
-55 2 -34 0 -41 -11 -35 -7 5 -38 10 -68 11 -106 5 -223 13 -246 17 -13 3 -26
1 -29 -4 -3 -5 -12 -7 -19 -4 -8 3 -17 1 -21 -5 -3 -6 -16 -11 -27 -11 -25 0
-139 -38 -152 -51 -6 -5 -18 -9 -29 -9 -11 0 -15 -4 -11 -12 4 -7 3 -8 -4 -4
-17 10 -72 -21 -118 -68 -22 -22 -47 -42 -55 -44 -7 -2 -20 -13 -29 -24 -8
-11 -22 -28 -32 -38 -9 -10 -14 -20 -12 -23 3 -3 -5 -13 -18 -23 -26 -22 -82
-104 -71 -104 5 -1 -3 -7 -17 -15 -14 -8 -21 -14 -17 -15 5 0 -1 -13 -13 -30
-22 -32 -31 -58 -34 -102 0 -16 -4 -28 -8 -28 -9 0 -24 -57 -33 -120 -4 -25
-12 -51 -18 -59 -10 -12 -9 -13 2 -6 11 6 12 5 5 -6 -18 -27 -18 -278 0 -307
4 -7 2 -12 -4 -12 -8 0 -8 -6 0 -20 9 -17 19 -74 22 -130 0 -8 5 -20 10 -26 4
-7 10 -29 13 -50 6 -52 12 -81 21 -96 7 -11 15 -51 17 -85 0 -7 4 -13 9 -13 4
0 8 -5 8 -11 0 -5 -6 -7 -12 -3 -10 6 -10 4 -2 -7 12 -16 16 -43 18 -116 0
-29 4 -53 7 -53 3 0 4 -42 2 -92 -11 -241 0 -583 17 -583 2 0 6 -22 14 -75 6
-39 14 -75 16 -75 1 0 3 -11 4 -25 5 -45 30 -135 41 -142 6 -5 5 -8 -4 -8 -11
0 -11 -3 -1 -15 7 -8 9 -15 5 -15 -4 0 -3 -6 3 -12 5 -7 13 -29 16 -48 7 -34
14 -55 37 -104 6 -13 9 -29 5 -34 -3 -6 -2 -12 4 -14 19 -6 41 -148 28 -185
-4 -14 -3 -23 2 -23 6 0 8 -11 4 -26 -18 -73 -21 -424 -3 -497 6 -28 13 -63
14 -77 1 -14 5 -33 10 -44 4 -10 9 -32 10 -50 2 -17 4 -31 5 -31 2 0 3 -6 13
-75 7 -44 18 -92 25 -105 4 -5 7 -16 7 -25 3 -36 17 -96 25 -105 5 -6 9 -20 9
-30 0 -22 50 -171 65 -194 7 -11 6 -12 -5 -6 -8 5 -6 0 4 -12 10 -11 21 -38
24 -59 3 -22 9 -44 14 -50 5 -5 11 -44 14 -85 4 -41 9 -103 12 -139 3 -36 6
-109 7 -162 0 -54 3 -98 6 -98 8 0 5 -44 -4 -58 -4 -7 -2 -12 4 -12 6 0 8 -5
4 -12 -12 -19 -11 -78 1 -78 5 0 4 -4 -3 -9 -9 -5 -14 -42 -16 -123 -2 -63 -6
-120 -10 -126 -3 -6 -2 -13 3 -17 6 -3 7 -15 2 -28 -5 -13 -3 -34 4 -52 7 -16
12 -47 11 -67 -1 -21 1 -38 4 -38 4 0 6 -24 5 -52 0 -29 3 -64 7 -78 4 -14 10
-41 12 -60 3 -19 5 -35 6 -35 2 0 4 -12 14 -94 3 -24 10 -58 16 -75 5 -17 11
-43 12 -58 1 -16 5 -28 9 -28 3 0 6 -6 6 -12 0 -7 8 -31 18 -53 10 -22 20 -48
21 -58 2 -10 11 -31 19 -46 8 -16 11 -31 8 -35 -4 -3 -2 -6 4 -6 5 0 16 -18
23 -40 7 -22 19 -45 27 -51 7 -6 13 -22 13 -35 0 -12 6 -29 14 -36 7 -8 19
-32 27 -53 8 -22 18 -43 22 -46 5 -3 9 -10 10 -15 2 -15 32 -64 39 -64 4 0 5
-7 2 -15 -4 -8 -1 -15 5 -15 6 0 11 -5 11 -11 0 -6 13 -28 30 -49 17 -21 30
-42 30 -47 0 -8 26 -41 80 -101 12 -12 18 -22 15 -22 -2 0 24 -29 60 -65 35
-36 67 -65 70 -65 11 1 60 -55 57 -65 -2 -5 -1 -7 3 -3 6 6 60 -25 93 -52 6
-6 12 -8 12 -5 0 3 15 -5 33 -19 19 -15 37 -26 41 -26 3 0 20 -14 38 -30 17
-17 36 -30 43 -30 7 0 28 -11 48 -24 19 -13 38 -22 41 -18 3 3 6 1 6 -5 0 -5
19 -16 43 -23 57 -17 88 -27 112 -35 11 -4 33 -9 49 -11 16 -2 34 -9 41 -14 7
-5 15 -7 18 -3 4 3 12 2 19 -3 7 -5 37 -9 65 -9 29 0 53 -3 53 -6 0 -4 20 -7
45 -7 29 -1 45 3 45 11 0 9 2 9 8 0 6 -10 14 -9 35 2 29 15 39 8 37 -28 -1
-12 -1 -24 0 -27 6 -16 4 -70 -3 -70 -4 0 -4 -8 1 -17 9 -20 9 -173 0 -188 -7
-13 -2 -203 7 -280 5 -33 9 -76 10 -95 1 -19 3 -35 5 -35 1 0 4 -18 5 -40 2
-22 4 -40 5 -40 1 0 3 -10 6 -22 8 -44 9 -48 17 -54 6 -5 16 -47 19 -86 1 -7
4 -13 7 -13 5 0 34 -56 36 -70 6 -37 19 -70 26 -70 6 0 7 -4 4 -10 -3 -5 -1
-10 5 -10 6 0 9 -4 6 -9 -4 -5 -1 -22 6 -38 6 -15 12 -31 13 -35 2 -5 4 -10 5
-13 1 -3 3 -8 4 -12 1 -5 7 -37 15 -73 7 -36 15 -76 19 -90 3 -14 7 -42 8 -62
1 -21 5 -46 9 -55 10 -23 15 -38 33 -113 5 -20 15 -47 22 -60 7 -14 13 -26 12
-27 -1 -2 -1 -5 -1 -8 1 -3 2 -8 3 -12 2 -14 30 -78 35 -83 4 -3 12 -22 19
-42 7 -21 28 -60 47 -88 33 -49 52 -107 61 -185 4 -40 11 -80 14 -80 1 0 4
-11 14 -60 1 -5 6 -16 10 -24 6 -9 5 -12 -1 -8 -6 4 -5 -11 3 -34 13 -35 25
-99 27 -136 0 -7 3 -13 7 -13 3 0 6 -10 6 -22 1 -13 4 -41 8 -63 4 -22 9 -60
12 -84 2 -24 7 -48 11 -54 4 -6 8 -28 9 -48 1 -21 5 -43 10 -50 4 -7 8 -29 9
-49 2 -49 27 -140 37 -134 4 3 8 2 9 -3 0 -4 3 -17 5 -28 3 -11 6 -26 6 -32 1
-7 5 -13 10 -13 4 0 7 -3 6 -7 -1 -5 6 -25 15 -47 9 -21 17 -42 17 -47 0 -5
10 -25 21 -46 12 -21 35 -62 52 -92 16 -30 50 -74 73 -98 24 -24 43 -47 42
-51 0 -4 2 -15 5 -25 4 -9 10 -25 14 -35 3 -9 5 -20 5 -24 -1 -5 3 -8 10 -8 6
0 9 -3 5 -6 -3 -4 0 -22 8 -40 8 -19 12 -34 9 -34 -2 0 3 -11 11 -24 9 -13 18
-34 21 -47 3 -13 6 -28 8 -34 1 -5 8 -20 14 -32 7 -13 10 -23 6 -23 -3 0 -1
-7 6 -15 7 -8 10 -15 6 -15 -3 0 3 -24 15 -52 11 -29 22 -62 25 -73 8 -33 10
-38 27 -75 8 -19 17 -46 19 -60 1 -14 9 -31 16 -38 7 -8 10 -18 7 -23 -4 -5
-2 -9 3 -9 9 0 28 -39 34 -70 2 -8 10 -20 18 -27 8 -7 11 -13 5 -13 -6 0 -6
-3 1 -8 6 -4 23 -33 38 -65 15 -32 40 -72 56 -89 16 -17 32 -39 35 -49 4 -11
11 -19 16 -19 5 0 9 -7 9 -15 0 -8 4 -15 9 -15 13 0 65 -53 80 -83 8 -15 18
-27 23 -27 4 0 8 -11 8 -25 0 -14 5 -25 10 -25 6 0 10 -9 10 -20 0 -11 4 -20
9 -20 9 0 27 -45 35 -87 2 -10 11 -36 20 -56 8 -20 13 -37 10 -37 -2 0 3 -11
12 -25 9 -14 13 -25 8 -25 -4 0 -3 -5 3 -11 6 -6 9 -18 6 -25 -3 -8 -1 -14 4
-14 8 0 33 -60 39 -90 0 -3 4 -13 7 -23 4 -9 10 -25 14 -35 3 -9 8 -28 10 -41
2 -13 15 -43 28 -67 13 -23 21 -45 18 -48 -4 -3 -1 -6 5 -6 7 0 12 -6 12 -13
0 -18 24 -67 33 -67 4 0 7 -8 7 -18 0 -22 30 -83 64 -127 14 -18 26 -37 26
-42 0 -5 11 -25 25 -45 14 -20 25 -44 25 -52 0 -9 4 -16 9 -16 8 0 15 -22 27
-84 3 -11 9 -25 14 -31 5 -6 12 -22 14 -36 3 -13 6 -26 7 -29 1 -3 3 -9 4 -15
0 -5 12 -30 25 -55 12 -25 22 -46 20 -48 -4 -5 24 -67 42 -91 10 -13 18 -32
18 -42 0 -11 5 -19 11 -19 5 0 8 -4 5 -8 -3 -5 15 -30 39 -57 24 -27 41 -53
39 -57 -3 -4 2 -8 10 -8 9 0 16 -4 16 -9 0 -4 11 -20 25 -35 14 -15 25 -24 25
-20 0 4 10 -6 23 -22 29 -38 57 -66 57 -57 0 3 8 -1 18 -10 10 -10 21 -15 24
-12 3 3 16 -5 30 -17 14 -13 30 -24 37 -26 13 -2 50 -38 52 -49 4 -18 25 -60
45 -88 12 -16 27 -45 35 -63 8 -17 17 -32 21 -32 5 0 8 -4 8 -10 0 -5 14 -38
30 -72 17 -34 30 -70 30 -80 0 -10 3 -18 8 -18 7 0 25 -30 38 -63 3 -9 10 -17
15 -17 5 0 15 -15 24 -32 14 -33 35 -68 45 -78 3 -3 11 -17 18 -31 8 -14 27
-41 43 -60 16 -19 29 -38 29 -42 0 -12 146 -157 159 -157 6 0 11 -4 11 -9 0
-5 13 -14 29 -21 16 -6 32 -18 35 -26 5 -13 77 -48 92 -44 4 1 10 -2 13 -7 7
-11 93 -53 108 -53 6 0 22 -17 36 -37 14 -21 37 -50 51 -65 14 -15 26 -30 26
-35 0 -4 13 -21 29 -38 16 -16 31 -37 33 -45 2 -8 10 -22 18 -30 20 -20 80
-98 80 -104 0 -2 18 -22 40 -44 22 -21 40 -44 40 -50 0 -7 7 -12 15 -12 8 0
15 -4 15 -9 0 -5 8 -12 18 -15 10 -4 32 -19 48 -35 17 -17 37 -31 45 -33 7 -2
18 -8 24 -14 5 -6 29 -16 53 -23 23 -6 42 -16 42 -21 0 -11 53 -23 120 -27 30
-1 71 -3 90 -4 19 -1 37 -5 40 -9 3 -4 26 -23 51 -42 26 -19 53 -40 60 -47 44
-37 63 -51 69 -51 4 0 20 -11 36 -25 16 -14 35 -25 42 -25 6 0 12 -4 12 -8 0
-4 20 -13 45 -20 25 -7 45 -16 45 -22 0 -5 8 -10 18 -10 10 0 22 -3 26 -7 9
-9 30 -13 104 -15 34 -2 62 -5 62 -8 0 -3 19 -6 43 -6 106 -3 193 -11 205 -18
6 -4 12 -4 12 -1 0 3 14 -2 30 -12 17 -9 30 -21 30 -25 0 -4 5 -8 11 -8 9 0
56 -32 101 -69 9 -8 14 -19 11 -24 -3 -6 -1 -7 5 -3 5 3 12 3 14 -1 6 -15 133
-118 158 -130 14 -6 51 -23 82 -38 32 -14 60 -26 63 -25 11 2 45 -42 39 -51
-3 -5 0 -9 5 -9 6 0 11 -7 11 -15 0 -8 4 -15 8 -15 5 0 15 -11 22 -25 7 -13
16 -22 20 -20 3 2 13 -5 20 -16 8 -10 22 -19 31 -19 9 0 22 -7 29 -15 7 -8 16
-12 21 -9 5 3 15 2 22 -3 6 -4 21 -9 32 -10 11 -2 35 -10 53 -19 35 -16 67
-24 117 -29 17 -1 32 -4 35 -5 3 -2 10 -4 15 -5 6 -2 12 -4 15 -5 30 -13 300
-22 300 -10 0 6 10 6 23 2 25 -9 64 -8 74 2 3 3 12 1 19 -5 8 -6 14 -7 18 0 4
6 13 8 20 5 23 -9 126 -10 126 -1 0 4 9 3 20 -3 10 -6 23 -9 27 -8 13 4 103
-26 103 -34 0 -4 7 -5 14 -2 8 3 28 -1 43 -9 34 -19 61 -29 88 -33 32 -5 99
-27 110 -35 13 -10 287 -5 303 5 7 4 22 9 34 12 13 3 34 7 48 10 14 3 61 7
105 9 44 2 80 4 80 5 0 4 45 10 98 12 31 1 57 6 57 10 0 4 9 5 20 3 11 -2 20
0 20 4 0 4 12 8 28 8 30 1 51 5 130 27 28 8 52 12 52 9 0 -3 6 -1 13 4 6 6 20
9 30 8 9 -2 17 2 17 8 0 5 3 7 7 4 3 -4 11 -3 17 2 6 5 25 11 43 14 17 3 37 8
44 13 8 5 10 3 4 -5 -6 -10 -2 -10 16 0 27 14 30 15 109 25 106 14 193 10 271
-12 42 -11 83 -20 92 -18 10 1 17 -1 17 -5 0 -4 6 -8 13 -9 6 0 23 -3 37 -7
14 -4 41 -7 60 -8 19 -1 38 -6 42 -12 5 -6 8 -6 8 1 0 6 18 11 40 11 22 0 40
-4 40 -9 0 -5 6 -6 12 -1 7 4 29 8 48 9 19 1 58 8 85 17 28 8 73 20 100 26 28
7 67 24 88 39 72 51 156 100 161 94 3 -3 6 0 6 7 0 7 6 11 14 8 8 -3 16 -1 18
4 2 6 10 11 18 12 8 2 21 6 28 11 7 4 16 6 19 3 3 -3 17 -1 32 5 26 10 38 12
121 23 25 4 61 9 80 11 19 3 72 6 117 8 46 1 85 5 88 8 3 3 20 2 38 -2 38 -8
99 -4 142 10 16 5 46 12 65 15 29 4 67 12 103 21 4 1 8 3 10 4 1 1 13 3 27 4
30 3 112 19 125 26 3 1 17 3 33 4 15 1 32 4 37 7 6 3 17 5 25 4 8 0 21 5 28
12 8 7 18 11 23 8 5 -4 9 -2 9 3 0 12 49 34 61 27 5 -4 9 -2 9 4 0 5 16 15 36
21 37 12 134 99 134 119 0 6 5 11 11 11 6 0 23 12 38 27 37 37 74 68 84 71 4
1 8 2 10 3 14 5 77 3 77 -3 0 -4 11 -3 25 2 14 5 25 8 25 5 0 -2 15 1 33 7 17
5 50 12 72 14 40 4 80 11 80 14 0 3 41 11 80 16 22 2 46 5 53 6 6 1 12 6 12
11 0 6 3 7 6 4 4 -3 16 -1 28 5 11 7 25 11 29 10 5 -1 6 1 3 6 -3 5 6 15 19
22 14 7 25 17 25 22 0 5 5 6 10 3 6 -3 10 1 10 9 0 8 8 17 18 20 25 8 102 80
102 95 0 7 5 9 10 6 6 -3 10 0 10 9 0 8 17 32 39 54 21 21 41 47 45 58 10 31
79 59 166 68 26 2 125 49 150 70 8 8 27 16 41 19 14 4 48 27 74 52 27 25 52
45 57 45 4 0 8 5 8 10 0 6 5 10 10 10 15 0 80 64 80 79 0 6 5 11 10 11 6 0 10
6 10 14 0 8 15 27 33 43 17 16 33 36 35 44 2 7 8 17 13 20 6 3 11 16 12 27 1
12 4 22 8 22 4 0 12 13 18 28 10 25 54 66 70 67 3 1 17 7 29 14 13 7 26 10 29
7 3 -2 15 6 28 20 12 13 26 24 31 24 5 0 15 9 22 20 7 11 18 20 25 20 12 1 96
60 85 60 -3 0 7 14 23 31 16 18 28 34 25 36 -4 5 14 30 47 65 9 10 14 18 11
18 -3 0 4 12 15 26 12 15 21 35 21 45 0 11 4 19 9 19 5 0 8 11 6 25 -1 14 2
25 6 25 5 0 8 4 7 8 -6 20 82 119 122 140 14 7 40 21 58 32 17 11 32 17 32 14
0 -4 7 -1 15 6 8 7 15 9 15 6 0 -4 10 2 22 14 12 11 25 20 30 20 13 0 21 3 63
26 22 12 65 35 95 50 30 15 67 36 83 46 15 11 27 16 27 13 0 -3 13 3 29 14 16
12 33 21 37 21 4 0 14 7 23 15 23 22 91 66 91 58 0 -3 10 7 22 23 13 16 36 40
53 54 16 14 36 34 45 44 8 10 23 27 33 38 9 10 15 18 12 18 -3 0 1 14 10 30 9
17 21 30 27 30 6 0 8 3 5 7 -4 3 0 11 8 17 8 6 16 20 18 31 2 11 11 35 20 53
10 17 14 32 11 32 -4 0 0 8 9 18 8 9 16 22 16 27 1 6 8 18 16 28 8 9 15 22 15
27 0 6 4 10 9 10 8 0 21 34 26 65 0 6 5 19 9 30 4 11 12 32 18 48 6 15 15 27
21 27 6 0 8 3 4 6 -12 12 49 61 86 68 20 4 37 11 37 16 0 6 3 9 8 8 4 -1 21 4
37 12 71 31 109 50 102 50 -4 0 8 14 27 30 19 17 38 44 41 60 4 17 11 32 16
35 5 4 9 19 9 35 0 16 5 41 12 57 6 15 13 34 15 41 1 6 5 18 6 25 2 6 9 24 15
38 6 15 13 45 17 68 3 22 13 57 21 76 8 19 11 35 7 35 -5 0 -3 4 2 8 17 12 51
56 37 48 -11 -7 -11 -4 0 13 7 12 16 21 19 21 4 0 12 14 19 30 7 17 17 30 22
30 5 0 7 4 4 8 -3 5 5 24 18 43 13 19 26 44 30 56 4 11 13 24 21 27 8 3 15 13
15 22 0 10 2 15 6 12 4 -5 28 17 92 87 6 7 12 18 12 24 0 6 5 11 11 11 5 0 8
4 5 9 -4 5 7 22 23 37 17 15 28 31 25 36 -3 4 0 8 6 8 6 0 9 4 5 9 -3 5 1 15
8 23 7 7 16 21 20 31 4 10 10 16 15 13 4 -2 8 3 9 12 1 9 7 31 14 47 6 17 13
44 14 60 2 17 10 49 18 72 8 24 10 40 5 37 -6 -4 -4 4 3 17 6 13 20 53 29 89
25 95 25 95 31 100 12 11 51 105 55 134 5 40 10 58 18 76 3 8 8 38 11 65 9 98
13 123 19 133 3 6 2 13 -3 16 -9 6 -6 74 4 84 2 3 0 11 -6 19 -9 9 -8 13 0 13
8 0 9 5 2 18 -5 10 -6 24 -2 30 4 7 6 29 5 50 -1 20 2 42 6 47 5 6 9 13 9 18
2 22 15 64 24 75 5 6 7 12 3 12 -3 0 5 25 19 56 14 31 25 63 25 70 0 8 4 14 9
14 5 0 8 8 7 17 -2 10 1 32 6 48 6 17 10 36 11 43 0 6 3 12 6 12 3 0 7 15 8
33 1 17 5 59 8 92 4 33 7 101 8 150 1 50 6 96 11 104 6 10 5 12 -2 7 -11 -7
18 67 31 81 4 3 7 14 7 24 0 10 6 22 13 26 18 12 39 52 32 63 -4 6 -1 10 4 10
6 0 11 7 11 15 0 8 4 15 10 15 5 0 9 3 9 8 -4 21 2 43 10 38 8 -5 12 5 26 57
2 4 3 8 5 10 2 3 7 25 11 57 2 14 7 27 11 30 8 7 18 51 23 110 3 25 7 61 10
80 11 84 16 140 18 215 2 44 6 85 9 91 4 6 4 14 1 18 -8 8 -13 30 -18 76 -1
19 -6 53 -10 75 -22 128 -24 205 -5 255 14 37 22 60 25 73 2 4 4 10 5 15 1 4
2 10 1 15 0 4 4 7 10 7 6 0 9 9 6 20 -3 11 -2 20 3 20 4 0 8 18 8 39 0 22 5
57 11 78 6 21 9 49 6 61 -2 12 1 24 6 27 5 4 7 11 4 16 -4 5 -3 15 2 22 10 15
11 127 2 127 -4 0 -4 14 1 30 5 17 5 30 1 30 -4 0 -7 12 -8 28 -1 46 -11 116
-18 134 -9 23 1 81 18 93 8 5 12 16 10 23 -3 6 0 12 5 12 6 0 9 11 7 25 -1 14
1 25 5 25 4 0 7 6 7 13 1 24 12 66 22 84 5 11 13 51 16 89 10 106 10 108 18
120 3 6 4 14 0 18 -6 6 -8 48 -13 246 -1 52 -5 100 -9 105 -3 6 -7 24 -8 40
-4 47 -9 78 -18 98 -4 10 -8 34 -9 53 0 19 -4 34 -8 34 -4 0 -6 8 -6 18 1 9
-3 51 -7 92 -14 133 -9 224 16 285 7 17 14 39 15 50 2 11 7 31 11 45 3 14 7
28 7 32 1 3 4 10 9 14 4 4 7 18 7 30 0 13 5 26 10 29 6 4 8 11 5 16 -4 5 -1 9
5 9 7 0 10 7 7 15 -4 8 -2 17 4 21 6 3 8 12 5 20 -3 8 -1 14 5 14 6 0 7 5 3
11 -3 6 -2 14 3 18 6 3 13 35 17 71 4 35 8 65 9 66 1 1 27 5 57 8 134 14 159
19 188 34 12 7 22 10 22 6 0 -3 6 -1 13 5 8 6 17 8 20 4 4 -3 14 0 23 8 10 8
19 13 20 12 9 -4 44 11 44 19 0 5 5 6 10 3 6 -3 10 -2 10 4 0 5 13 12 29 16
16 3 35 13 42 21 6 8 16 14 21 14 6 0 30 21 54 46 24 25 44 42 44 38 0 -3 7
-1 15 6 8 7 12 16 9 21 -3 5 -2 8 3 7 5 -2 25 15 44 37 18 22 42 46 52 53 9 7
17 20 17 28 0 8 4 14 8 14 5 0 15 11 22 25 7 13 18 21 24 18 6 -3 8 -3 4 1 -3
4 5 24 18 44 14 19 27 46 30 59 4 13 10 23 14 23 4 0 11 11 14 25 4 14 11 25
16 25 5 0 7 7 4 15 -4 8 -1 15 5 15 6 0 8 6 5 14 -3 8 3 31 14 53 11 21 18 48
17 61 -1 12 2 22 6 22 4 0 6 8 4 18 -1 9 0 22 4 27 7 12 8 19 16 65 4 19 9 46
12 60 3 14 7 36 8 50 2 14 4 25 5 25 1 0 3 14 5 30 2 17 6 48 9 70 7 58 29
302 29 333 0 6 3 12 7 12 3 0 6 80 7 178 0 185 13 263 50 304 9 10 13 18 9 18
-4 0 -1 10 5 22 6 12 13 45 15 72 2 28 5 69 8 91 11 91 18 152 21 187 1 20 6
42 11 49 5 8 3 10 -6 4 -9 -6 -11 -4 -5 5 4 7 9 23 11 34 3 25 6 37 34 141 12
44 22 88 23 98 1 9 5 17 10 17 4 0 6 4 3 9 -4 5 -1 22 5 38 22 52 30 101 33
185 0 32 3 58 6 58 16 0 14 425 -3 514 -9 51 -12 90 -6 109 10 34 50 97 62 97
5 0 6 4 2 9 -3 6 2 14 11 19 9 5 15 12 15 15 -1 4 -1 8 0 10 0 1 2 10 4 19 4
24 29 78 35 78 3 0 6 10 6 23 2 26 27 81 64 142 14 22 25 42 26 45 5 30 20 68
31 82 8 9 12 21 9 27 -4 5 -2 12 4 16 5 3 10 17 10 31 0 13 5 24 11 24 5 0 7
5 4 10 -4 6 -2 16 4 23 5 7 13 28 16 47 3 19 11 40 16 47 6 6 13 27 16 45 3
18 9 40 14 49 4 9 6 19 3 22 -3 3 -1 21 5 39 6 18 13 53 16 77 3 24 10 51 15
61 5 9 6 20 3 24 -3 3 0 6 8 6 11 0 11 2 -1 10 -8 5 -10 10 -5 10 6 0 10 19 9
45 -1 25 1 45 6 45 4 0 7 24 8 52 0 29 1 55 2 58 4 8 8 61 11 147 2 46 6 83 9
83 3 0 5 29 5 64 0 35 2 63 6 61 3 -2 5 13 6 33 0 50 11 130 18 142 3 5 11 36
16 67 13 74 13 76 20 88 4 6 5 18 4 28 -2 9 1 17 6 17 6 0 6 8 -1 19 -6 11 -6
22 -1 25 9 6 22 74 27 144 1 24 8 50 14 57 10 12 10 15 -1 15 -12 0 -12 2 0 9
7 5 9 11 4 14 -4 3 -7 23 -6 44 9 115 9 163 0 163 -6 0 -6 5 0 13 22 29 -11
306 -41 346 -9 12 -8 13 2 7 11 -7 12 -4 3 12 -6 12 -11 25 -10 29 1 4 0 10
-1 13 -1 3 -3 12 -5 20 -2 8 -17 52 -33 98 -16 45 -27 82 -24 82 3 0 -4 8 -15
18 -11 9 -22 25 -26 35 -3 9 -11 17 -17 17 -5 0 -10 9 -10 20 0 12 -11 32 -25
46 -13 13 -24 26 -22 28 1 2 -11 15 -28 28 -16 12 -52 44 -78 71 -27 26 -55
47 -63 47 -8 0 -14 4 -14 10 0 5 -3 9 -7 8 -13 -3 -83 25 -83 34 0 4 -8 8 -18
8 -10 0 -22 3 -26 7 -9 10 -33 14 -96 16 -30 1 -59 5 -65 9 -5 3 -23 4 -40 1
-16 -2 -50 -6 -75 -8 -25 -2 -45 -4 -45 -5 0 -1 -34 -2 -75 -4 -41 -1 -80 -5
-86 -8 -6 -4 -21 -9 -35 -12 -57 -12 -68 -15 -90 -28 -13 -7 -31 -18 -39 -25
-8 -6 -18 -12 -22 -13 -4 0 -27 -10 -50 -20 -24 -11 -49 -20 -55 -20 -7 0 -13
-4 -13 -10 0 -5 -7 -10 -15 -10 -8 0 -15 -4 -15 -9 0 -5 -11 -12 -25 -15 -14
-4 -25 -11 -25 -16 0 -6 -7 -10 -15 -10 -8 0 -15 -4 -15 -10 0 -11 -40 -34
-47 -26 -3 3 -7 31 -9 63 -4 59 -12 134 -14 143 -2 5 0 97 3 187 1 29 6 53 11
53 5 0 3 6 -3 13 -6 8 -8 17 -5 20 4 3 8 19 9 34 7 66 16 117 22 126 7 11 10
62 18 326 3 101 8 188 12 194 10 16 14 638 4 674 -6 21 -6 35 0 39 6 4 6 10 0
18 -6 7 -6 17 -1 26 5 9 5 17 -1 21 -17 10 -10 534 9 744 5 55 8 103 6 107 -3
4 0 9 6 13 6 4 8 11 5 16 -4 5 -3 15 1 21 9 15 12 33 18 113 23 294 24 307 31
339 3 16 8 33 11 38 3 4 1 8 -4 8 -5 0 -7 12 -5 28 2 15 5 43 7 62 1 20 5 40
9 46 3 6 4 14 1 17 -6 6 -8 176 -2 182 2 2 3 34 2 71 -1 37 2 78 7 91 5 13 4
25 -1 28 -6 3 -6 15 0 30 5 14 6 25 2 25 -5 0 -9 35 -9 78 -2 118 -7 202 -13
202 -5 0 -8 31 -14 143 0 15 -5 27 -9 27 -4 0 -4 7 1 16 6 11 4 32 -4 60 -7
24 -10 44 -7 44 3 0 0 6 -6 13 -6 8 -8 17 -4 20 10 11 11 91 1 103 -5 7 -8 16
-7 20 1 5 -3 22 -9 37 -7 16 -12 37 -12 47 0 10 -5 22 -10 25 -6 4 -8 11 -4
16 3 5 0 16 -6 24 -6 8 -9 19 -5 25 3 5 2 10 -3 10 -8 0 -26 53 -33 95 0 6
-10 22 -20 36 -10 15 -20 36 -22 48 -2 11 -6 24 -10 27 -4 4 -7 13 -7 21 0 7
-11 31 -25 52 -14 21 -28 48 -30 61 -3 13 -9 26 -13 29 -8 5 -21 36 -28 64 -1
4 -3 9 -4 12 -1 3 -4 10 -5 15 -1 6 -3 11 -5 13 -1 1 -3 10 -5 19 -2 10 -10
25 -19 34 -14 14 -21 35 -17 57 0 4 -4 7 -10 7 -5 0 -7 5 -3 11 3 6 2 14 -3
18 -6 3 -25 38 -43 76 -18 39 -42 84 -54 100 -11 17 -20 32 -20 35 3 11 -17
53 -44 93 -15 23 -34 56 -42 72 -8 17 -18 35 -23 40 -15 20 -87 165 -82 165 3
0 -6 18 -20 40 -14 22 -25 43 -25 48 0 4 -10 28 -22 53 -11 24 -21 50 -21 57
0 6 -4 12 -9 12 -5 0 -7 4 -3 9 3 5 1 12 -5 16 -6 4 -8 10 -5 15 3 5 1 11 -5
15 -5 3 -10 15 -10 26 0 10 -4 19 -10 19 -5 0 -10 11 -10 24 0 14 -4 28 -10
31 -5 3 -10 15 -10 25 0 10 -4 20 -8 22 -10 4 -62 111 -62 126 0 7 -4 12 -8
12 -5 0 -15 19 -22 43 -8 23 -17 47 -22 53 -4 6 -5 14 -1 17 3 4 1 7 -5 7 -6
0 -16 25 -23 55 -7 30 -16 55 -21 55 -4 0 -7 3 -6 8 1 4 -4 20 -11 36 -6 16
-13 36 -14 45 -2 9 -13 39 -26 66 -12 28 -24 59 -27 69 -2 11 -8 24 -14 30 -5
5 -10 18 -10 28 0 10 -4 18 -8 18 -4 0 -19 29 -32 65 -13 35 -26 62 -29 60 -4
-5 -18 16 -43 65 -7 14 -15 27 -18 30 -12 11 -44 66 -46 79 -2 7 -7 18 -13 24
-6 6 -11 17 -11 25 0 8 -9 22 -20 32 -19 16 -45 68 -42 83 1 4 -2 7 -8 7 -5 0
-10 4 -10 9 0 5 -16 26 -35 47 -20 20 -38 48 -41 61 -4 12 -10 23 -14 23 -9 0
-38 43 -42 61 -3 15 -7 20 -52 77 -19 23 -38 51 -41 62 -4 11 -11 20 -17 20
-6 0 -9 3 -5 6 3 3 -6 17 -20 30 -14 13 -22 24 -17 24 5 0 4 4 -2 8 -18 13
-94 125 -94 139 0 8 -4 11 -10 8 -5 -3 -10 3 -10 15 0 12 -4 18 -10 15 -5 -3
-10 -2 -10 4 0 6 -12 22 -27 36 -15 14 -24 25 -20 25 8 0 2 9 -55 71 -21 23
-38 48 -38 56 0 8 -4 11 -10 8 -5 -3 -10 -1 -10 6 0 6 -13 25 -30 41 -16 15
-30 32 -30 37 0 4 -22 31 -50 59 -27 28 -50 56 -50 61 0 6 -7 11 -15 11 -8 0
-15 4 -15 8 0 5 -8 18 -17 29 -10 12 -31 38 -48 58 -16 21 -38 46 -47 56 -10
11 -18 24 -18 29 0 6 -4 10 -10 10 -5 0 -10 7 -10 16 0 8 -4 12 -10 9 -5 -3
-10 1 -10 10 0 8 -10 20 -22 26 -13 6 -34 27 -46 48 -13 21 -47 51 -78 70 -29
17 -60 41 -67 51 -8 11 -17 17 -20 13 -4 -3 -7 -1 -7 6 0 7 -4 10 -9 7 -4 -3
-21 6 -37 19 -16 14 -51 38 -79 54 -27 16 -63 41 -80 55 -42 37 -48 42 -76 56
-13 7 -26 16 -29 19 -3 3 -23 19 -45 36 -22 16 -54 44 -71 62 -17 18 -36 33
-42 33 -7 0 -12 3 -12 8 0 4 -14 16 -30 27 -16 11 -30 26 -30 33 0 7 -4 10
-10 7 -5 -3 -10 -2 -10 3 0 12 -66 52 -85 52 -7 0 -15 7 -19 15 -3 8 -12 15
-21 15 -8 0 -15 5 -15 10 0 6 -7 10 -16 10 -9 0 -12 5 -8 12 4 6 3 8 -4 4 -6
-3 -16 -1 -24 6 -7 7 -20 14 -28 16 -8 2 -17 7 -20 11 -3 4 -22 19 -42 32 -60
41 -148 120 -143 129 3 5 -3 11 -13 14 -10 3 -29 24 -43 46 -13 22 -27 40 -31
40 -5 0 -8 6 -8 14 0 8 -3 16 -7 18 -5 2 -19 26 -33 53 -13 28 -32 56 -42 63
-9 7 -27 33 -40 58 -12 25 -43 67 -68 94 -59 62 -70 77 -70 90 0 5 -7 10 -15
10 -9 0 -18 7 -21 15 -4 8 -12 15 -18 15 -7 0 -22 14 -35 30 -12 17 -46 47
-76 67 -30 20 -55 40 -55 45 0 5 -4 6 -10 3 -5 -3 -10 0 -10 8 0 8 -8 17 -17
21 -29 9 -70 41 -171 134 -19 17 -39 32 -44 32 -4 0 -8 7 -8 16 0 8 -4 13 -8
10 -5 -3 -25 8 -44 24 -19 16 -39 26 -43 22 -5 -4 -5 -1 -1 6 5 9 1 15 -13 19
-11 3 -18 9 -15 14 4 8 -4 10 -31 9 -3 0 -15 9 -27 20 -12 11 -26 20 -31 20
-4 0 -23 11 -41 25 -18 14 -36 22 -39 18 -4 -3 -7 -2 -7 4 0 6 -17 14 -37 18
-20 4 -54 15 -75 26 -21 11 -38 17 -38 13 0 -4 -6 -2 -12 3 -7 5 -29 11 -48
12 -44 4 -75 8 -75 10 0 5 -42 12 -85 16 -25 2 -45 4 -45 5 0 4 -44 12 -78 14
-20 2 -40 6 -44 10 -3 3 -18 6 -33 6 -15 0 -30 3 -33 7 -4 3 -19 8 -33 9 -15
2 -46 12 -71 24 -25 12 -50 19 -56 17 -7 -2 -23 2 -37 9 -45 24 -145 67 -152
66 -5 -1 -8 3 -8 9 0 5 -4 7 -10 4 -5 -3 -10 -2 -10 3 0 6 -11 13 -24 16 -14
3 -31 12 -38 19 -19 18 -73 42 -120 53 -5 1 -10 3 -13 4 -3 1 -8 3 -12 4 -5 1
-26 10 -48 20 -22 9 -74 19 -115 21 -41 2 -113 7 -160 11 -47 4 -93 7 -102 8
-10 0 -18 3 -18 6 0 4 -6 7 -12 8 -23 2 -63 9 -78 15 -8 3 -22 6 -30 6 -21 1
-64 8 -67 11 -2 1 -7 4 -13 5 -5 1 -11 3 -12 5 -2 1 -30 3 -63 5 -33 2 -60 4
-60 5 0 4 -44 10 -101 13 -33 2 -64 6 -70 9 -5 3 -40 4 -79 2 -92 -5 -97 -5
-120 0 -11 2 -24 1 -30 -3 -19 -11 -299 -16 -380 -6 -42 5 -87 14 -105 22 -8
3 -29 7 -47 8 -37 3 -103 24 -120 38 -7 5 -13 7 -13 4 0 -3 -12 5 -27 19 -14
13 -28 22 -31 19 -3 -3 -16 2 -29 10 -17 12 -23 12 -23 3 0 -10 -2 -10 -8 -1
-7 11 -60 10 -162 -2 -71 -8 -122 -7 -129 2 -11 19 -109 62 -153 69 -24 4 -48
10 -54 15 -6 5 -35 14 -65 20 -29 6 -63 17 -74 24 -19 12 -92 30 -108 27 -4
-1 -29 5 -55 13 -26 8 -81 17 -122 20 -41 3 -79 5 -85 5 -5 1 -74 0 -152 -1
-78 -1 -146 1 -151 5 -5 3 -11 3 -14 1z"/>
</g>
</svg>
