<svg version="1.1" id="Layer_1" xmlns="http://www.w3.org/2000/svg" xmlns:xlink="http://www.w3.org/1999/xlink" x="0px" y="0px"
	 width="100%" viewBox="0 0 345 200" enable-background="new 0 0 345 200" xml:space="preserve">
<path fill="#FFFFFF" opacity="1.000000" stroke="none" 
	d="
M221.000000,201.000000 
	C147.333344,201.000000 74.166687,201.000000 1.000020,201.000000 
	C1.000013,134.333344 1.000013,67.666702 1.000007,1.000038 
	C115.999969,1.000025 230.999939,1.000025 345.999939,1.000013 
	C345.999939,67.666626 345.999939,134.333252 345.999969,200.999939 
	C304.500000,201.000000 263.000000,201.000000 221.000000,201.000000 
M109.444077,166.000000 
	C112.822472,166.000000 116.200859,166.000000 121.089828,166.000000 
	C117.773796,163.882172 115.829659,162.543121 113.795891,161.357910 
	C102.918976,155.019104 92.691986,147.832809 84.102318,138.535507 
	C83.174805,137.531570 82.087135,136.108673 82.106316,134.896454 
	C82.183861,129.994583 82.444511,125.070755 83.068153,120.210274 
	C83.566620,116.325401 85.680099,114.946884 89.621361,116.915665 
	C95.360641,119.782623 101.530205,121.880768 106.991928,125.175880 
	C110.238289,127.134445 113.098228,130.400223 115.027649,133.720062 
	C117.988800,138.815109 120.224815,144.376129 122.346573,149.901459 
	C124.320778,155.042572 128.507874,160.202316 123.255630,165.704071 
	C187.956192,165.704071 252.378052,165.704071 316.745575,165.704071 
	C316.745575,153.007767 316.745575,140.609039 316.745575,128.087753 
	C302.269745,135.298294 288.862061,132.460983 288.317871,120.624947 
	C290.850586,122.359398 292.961426,123.226852 294.231812,124.781197 
	C298.369019,129.843124 308.168396,129.343109 312.315216,123.112656 
	C310.678314,122.358696 309.194794,121.412941 307.574280,120.980225 
	C303.400208,119.865654 299.152435,119.030380 294.959320,117.982697 
	C291.842163,117.203857 288.696899,115.624207 289.225525,112.094002 
	C289.560303,109.858421 291.661285,106.913841 293.688690,106.118210 
	C297.336609,104.686630 301.621735,103.793724 305.459137,104.239166 
	C309.193298,104.672630 312.700012,107.065567 316.478790,108.671303 
	C316.478790,81.737900 316.478790,53.951740 316.478790,26.104921 
	C273.727814,26.104921 231.086700,26.104921 189.391205,26.104921 
	C188.713440,29.281435 188.852173,32.655403 187.346436,34.950500 
	C182.388580,42.507488 177.057571,49.849693 171.448273,56.940887 
	C165.766708,64.123428 159.901215,71.217445 153.530579,77.781837 
	C147.244446,84.259178 140.819443,90.921875 133.366745,95.860443 
	C125.279449,101.219521 116.032967,104.899857 107.103584,108.890747 
	C101.864403,111.232346 96.285484,112.836823 90.808296,114.615585 
	C86.394699,116.048950 84.642868,114.640602 85.776947,110.612946 
	C90.624359,93.397423 97.868256,78.085205 113.186951,66.985039 
	C133.392700,52.343628 155.028091,40.415352 177.241333,29.338137 
	C179.064301,28.429066 180.979523,27.705011 182.851868,26.894991 
	C182.716446,26.698013 182.581024,26.501036 182.445602,26.304058 
	C134.358124,26.304058 86.270630,26.304058 38.092697,26.304058 
	C38.092697,67.225769 38.092697,107.843475 38.092697,148.972260 
	C39.529919,148.050064 41.019466,147.544052 41.807613,146.505661 
	C44.339294,143.170166 46.432690,139.496078 49.029537,136.217453 
	C52.299057,132.089569 55.315216,127.390694 59.503948,124.455528 
	C64.660492,120.842171 70.913002,118.792839 76.792755,116.019943 
	C77.975838,125.767059 75.248985,133.538635 67.463814,138.989426 
	C58.014137,145.605591 48.390125,151.972763 38.270660,158.834793 
	C38.270660,160.256973 38.270660,163.008301 38.270660,166.000000 
	C61.847054,166.000000 85.153694,166.000000 109.444077,166.000000 
M306.381531,116.000099 
	C309.800110,117.005898 313.218719,118.011696 316.768372,119.056061 
	C316.768372,116.766716 316.768372,115.001961 316.768372,113.546631 
	C314.488281,112.967125 311.374725,113.077446 310.701172,111.849426 
	C307.690186,106.359894 302.766602,108.222649 298.463165,108.166916 
	C297.328888,108.152237 295.489075,109.941315 295.247711,111.155449 
	C295.070526,112.046631 296.768219,113.890953 297.993042,114.356689 
	C300.367279,115.259483 302.996979,115.490463 306.381531,116.000099 
z"/>
<path fill="#000000" opacity="1.000000" stroke="none" 
	d="
M108.952209,166.000000 
	C85.153694,166.000000 61.847054,166.000000 38.270660,166.000000 
	C38.270660,163.008301 38.270660,160.256973 38.270660,158.834793 
	C48.390125,151.972763 58.014137,145.605591 67.463814,138.989426 
	C75.248985,133.538635 77.975838,125.767059 76.792755,116.019943 
	C70.913002,118.792839 64.660492,120.842171 59.503948,124.455528 
	C55.315216,127.390694 52.299057,132.089569 49.029537,136.217453 
	C46.432690,139.496078 44.339294,143.170166 41.807613,146.505661 
	C41.019466,147.544052 39.529919,148.050064 38.092697,148.972260 
	C38.092697,107.843475 38.092697,67.225769 38.092697,26.304058 
	C86.270630,26.304058 134.358124,26.304058 182.445602,26.304058 
	C182.581024,26.501036 182.716446,26.698013 182.851868,26.894991 
	C180.979523,27.705011 179.064301,28.429066 177.241333,29.338137 
	C155.028091,40.415352 133.392700,52.343628 113.186951,66.985039 
	C97.868256,78.085205 90.624359,93.397423 85.776947,110.612946 
	C84.642868,114.640602 86.394699,116.048950 90.808296,114.615585 
	C96.285484,112.836823 101.864403,111.232346 107.103584,108.890747 
	C116.032967,104.899857 125.279449,101.219521 133.366745,95.860443 
	C140.819443,90.921875 147.244446,84.259178 153.530579,77.781837 
	C159.901215,71.217445 165.766708,64.123428 171.448273,56.940887 
	C177.057571,49.849693 182.388580,42.507488 187.346436,34.950500 
	C188.852173,32.655403 188.713440,29.281435 189.391205,26.104921 
	C231.086700,26.104921 273.727814,26.104921 316.478790,26.104921 
	C316.478790,53.951740 316.478790,81.737900 316.478790,108.671303 
	C312.700012,107.065567 309.193298,104.672630 305.459137,104.239166 
	C301.621735,103.793724 297.336609,104.686630 293.688690,106.118210 
	C291.661285,106.913841 289.560303,109.858421 289.225525,112.094002 
	C288.696899,115.624207 291.842163,117.203857 294.959320,117.982697 
	C299.152435,119.030380 303.400208,119.865654 307.574280,120.980225 
	C309.194794,121.412941 310.678314,122.358696 312.315216,123.112656 
	C308.168396,129.343109 298.369019,129.843124 294.231812,124.781197 
	C292.961426,123.226852 290.850586,122.359398 288.317871,120.624947 
	C288.862061,132.460983 302.269745,135.298294 316.745575,128.087753 
	C316.745575,140.609039 316.745575,153.007767 316.745575,165.704071 
	C252.378052,165.704071 187.956192,165.704071 123.255630,165.704071 
	C128.507874,160.202316 124.320778,155.042572 122.346573,149.901459 
	C120.224815,144.376129 117.988800,138.815109 115.027649,133.720062 
	C113.098228,130.400223 110.238289,127.134445 106.991928,125.175880 
	C101.530205,121.880768 95.360641,119.782623 89.621361,116.915665 
	C85.680099,114.946884 83.566620,116.325401 83.068153,120.210274 
	C82.444511,125.070755 82.183861,129.994583 82.106316,134.896454 
	C82.087135,136.108673 83.174805,137.531570 84.102318,138.535507 
	C92.691986,147.832809 102.918976,155.019104 113.795891,161.357910 
	C115.829659,162.543121 117.773796,163.882172 121.089828,166.000000 
	C116.200859,166.000000 112.822472,166.000000 108.952209,166.000000 
M76.646896,114.998230 
	C78.099937,113.753113 80.333954,112.768997 80.854248,111.212166 
	C82.216293,107.136581 83.541031,102.820343 83.597458,98.582947 
	C83.724556,89.039085 86.947998,78.836098 78.942688,70.572891 
	C77.480202,69.063293 76.445625,67.127708 74.936806,65.676453 
	C69.121094,60.082626 63.307926,54.473057 57.214558,49.191536 
	C55.925156,48.073929 52.805592,46.029972 51.829369,49.724083 
	C50.518425,54.684822 48.997421,59.884556 49.263287,64.891602 
	C49.582710,70.907249 51.148991,77.014214 53.135693,82.748962 
	C56.605324,92.764297 57.973549,104.120102 68.629715,110.168953 
	C71.139984,111.593872 73.453896,113.364731 76.646896,114.998230 
M161.000000,118.702980 
	C161.000214,117.537567 160.950974,116.369667 161.009354,115.207176 
	C161.239883,110.616737 164.423508,108.294769 168.269379,108.231522 
	C171.397827,108.180069 175.131088,109.113113 175.112061,114.057579 
	C175.093246,118.949425 175.678802,123.843689 176.003448,128.736618 
	C176.045807,129.375000 176.113312,130.011703 176.197662,130.974182 
	C177.570694,130.862274 178.741486,130.766846 180.000626,130.664230 
	C180.000626,125.623390 179.841385,120.962555 180.043137,116.317398 
	C180.267792,111.145485 183.458527,107.850769 187.667603,108.011566 
	C192.074066,108.179916 194.948929,111.529327 194.991776,116.638412 
	C195.030640,121.271843 194.999985,125.905861 194.999985,130.679138 
	C196.828568,130.679138 198.328430,130.679138 199.999924,130.679138 
	C199.999924,126.546341 200.114685,122.727859 199.977585,118.918434 
	C199.621613,109.028801 198.138550,106.220871 190.917206,104.601845 
	C187.830551,103.909821 184.321289,105.202103 180.993423,105.449364 
	C179.002884,105.597260 176.767792,106.042847 175.027802,105.365349 
	C166.488983,102.040688 157.000549,104.748215 156.084930,114.915573 
	C155.613007,120.156090 156.002029,125.474144 156.002029,130.771332 
	C157.879547,130.771332 159.282257,130.771332 161.000000,130.771332 
	C161.000000,126.915138 161.000000,123.281998 161.000000,118.702980 
M208.053177,128.581161 
	C216.516174,136.029129 230.371582,131.020203 232.133621,120.517136 
	C228.800125,122.526321 226.637512,124.210945 224.193787,125.203194 
	C221.339706,126.362038 218.047043,127.968582 215.296768,127.463539 
	C211.956848,126.850212 208.383347,124.779312 208.166656,119.893768 
	C216.523743,119.893768 224.648636,119.893768 232.751663,119.893768 
	C233.163086,112.526031 229.107666,106.314270 222.703339,104.195274 
	C216.694702,102.207207 207.850555,105.414062 204.725250,110.823158 
	C202.122864,115.327232 201.747116,124.176727 208.053177,128.581161 
M284.985321,109.130905 
	C283.654633,107.927155 282.323944,106.723396 279.999969,104.621109 
	C279.999969,110.249229 279.996490,114.061218 280.000824,117.873192 
	C280.006744,123.069054 276.605621,126.188843 272.460571,127.641685 
	C268.257446,129.114868 263.484863,127.809586 261.952057,123.220284 
	C260.462097,118.759323 260.569824,113.761414 260.010315,108.995255 
	C259.860809,107.721779 259.836884,106.433563 259.762604,105.266769 
	C258.046753,105.266769 256.645599,105.266769 255.000336,105.266769 
	C255.000336,110.161423 254.892776,114.795944 255.030746,119.423157 
	C255.167160,123.997803 259.414032,130.145111 263.999725,130.852997 
	C269.056396,131.633591 274.326630,131.031128 279.979065,131.031128 
	C279.979065,134.710678 279.979065,139.289246 279.979065,143.761765 
	C284.643860,144.735626 284.969147,141.899124 284.982880,138.960159 
	C285.027954,129.317917 284.999359,119.675331 284.985321,109.130905 
M138.456161,104.000000 
	C130.351578,104.011925 124.629593,108.667381 123.967010,115.428749 
	C122.899132,126.325951 128.018951,130.751038 135.247375,131.730316 
	C140.891541,132.494980 146.846771,130.963562 153.000000,130.422882 
	C153.000000,126.513474 152.638962,122.331505 153.077774,118.235214 
	C153.902130,110.539764 147.454803,104.142365 138.456161,104.000000 
M249.620773,127.004700 
	C246.239075,127.059082 244.924759,125.267891 244.980667,122.032883 
	C245.058044,117.555847 245.000076,113.076469 245.000076,109.176254 
	C246.606400,107.948166 247.800430,107.035278 248.994476,106.122406 
	C247.782867,105.028419 246.571259,103.934441 244.815308,102.348976 
	C244.815308,100.562050 244.815308,97.943932 244.815308,94.990143 
	C243.046310,95.072929 241.534119,95.143700 239.837830,95.223076 
	C239.837830,98.396187 239.837830,101.021080 239.837830,103.708527 
	C238.096344,103.953514 236.554901,104.170357 235.013443,104.387199 
	C234.797760,104.909042 234.582092,105.430885 234.366409,105.952728 
	C236.147720,106.938545 237.929031,107.924362 240.000061,109.070511 
	C240.000061,113.151825 239.891449,117.634880 240.025269,122.110680 
	C240.230881,128.987228 244.560730,132.620956 251.137146,131.330505 
	C250.922470,129.918777 250.705566,128.492432 249.620773,127.004700 
z"/>
<path fill="#000000" opacity="1.000000" stroke="none" 
	d="
M305.951172,115.999969 
	C302.996979,115.490463 300.367279,115.259483 297.993042,114.356689 
	C296.768219,113.890953 295.070526,112.046631 295.247711,111.155449 
	C295.489075,109.941315 297.328888,108.152237 298.463165,108.166916 
	C302.766602,108.222649 307.690186,106.359894 310.701172,111.849426 
	C311.374725,113.077446 314.488281,112.967125 316.768372,113.546631 
	C316.768372,115.001961 316.768372,116.766716 316.768372,119.056061 
	C313.218719,118.011696 309.800110,117.005898 305.951172,115.999969 
z"/>
<path fill="#FFFFFF" opacity="1.000000" stroke="none" 
	d="
M76.252518,114.987335 
	C73.453896,113.364731 71.139984,111.593872 68.629715,110.168953 
	C57.973549,104.120102 56.605324,92.764297 53.135693,82.748962 
	C51.148991,77.014214 49.582710,70.907249 49.263287,64.891602 
	C48.997421,59.884556 50.518425,54.684822 51.829369,49.724083 
	C52.805592,46.029972 55.925156,48.073929 57.214558,49.191536 
	C63.307926,54.473057 69.121094,60.082626 74.936806,65.676453 
	C76.445625,67.127708 77.480202,69.063293 78.942688,70.572891 
	C86.947998,78.836098 83.724556,89.039085 83.597458,98.582947 
	C83.541031,102.820343 82.216293,107.136581 80.854248,111.212166 
	C80.333954,112.768997 78.099937,113.753113 76.252518,114.987335 
z"/>
<path fill="#FFFFFF" opacity="1.000000" stroke="none" 
	d="
M161.000000,119.175919 
	C161.000000,123.281998 161.000000,126.915138 161.000000,130.771332 
	C159.282257,130.771332 157.879547,130.771332 156.002029,130.771332 
	C156.002029,125.474144 155.613007,120.156090 156.084930,114.915573 
	C157.000549,104.748215 166.488983,102.040688 175.027802,105.365349 
	C176.767792,106.042847 179.002884,105.597260 180.993423,105.449364 
	C184.321289,105.202103 187.830551,103.909821 190.917206,104.601845 
	C198.138550,106.220871 199.621613,109.028801 199.977585,118.918434 
	C200.114685,122.727859 199.999924,126.546341 199.999924,130.679138 
	C198.328430,130.679138 196.828568,130.679138 194.999985,130.679138 
	C194.999985,125.905861 195.030640,121.271843 194.991776,116.638412 
	C194.948929,111.529327 192.074066,108.179916 187.667603,108.011566 
	C183.458527,107.850769 180.267792,111.145485 180.043137,116.317398 
	C179.841385,120.962555 180.000626,125.623390 180.000626,130.664230 
	C178.741486,130.766846 177.570694,130.862274 176.197662,130.974182 
	C176.113312,130.011703 176.045807,129.375000 176.003448,128.736618 
	C175.678802,123.843689 175.093246,118.949425 175.112061,114.057579 
	C175.131088,109.113113 171.397827,108.180069 168.269379,108.231522 
	C164.423508,108.294769 161.239883,110.616737 161.009354,115.207176 
	C160.950974,116.369667 161.000214,117.537567 161.000000,119.175919 
z"/>
<path fill="#FFFFFF" opacity="1.000000" stroke="none" 
	d="
M207.792603,128.300323 
	C201.747116,124.176727 202.122864,115.327232 204.725250,110.823158 
	C207.850555,105.414062 216.694702,102.207207 222.703339,104.195274 
	C229.107666,106.314270 233.163086,112.526031 232.751663,119.893768 
	C224.648636,119.893768 216.523743,119.893768 208.166656,119.893768 
	C208.383347,124.779312 211.956848,126.850212 215.296768,127.463539 
	C218.047043,127.968582 221.339706,126.362038 224.193787,125.203194 
	C226.637512,124.210945 228.800125,122.526321 232.133621,120.517136 
	C230.371582,131.020203 216.516174,136.029129 207.792603,128.300323 
M210.516418,110.991676 
	C209.590805,112.415527 208.665192,113.839378 207.402649,115.781525 
	C214.629669,115.781525 221.028275,115.781525 227.381561,115.781525 
	C224.716431,108.060417 219.752518,106.392563 210.516418,110.991676 
z"/>
<path fill="#FFFFFF" opacity="1.000000" stroke="none" 
	d="
M284.992188,109.581894 
	C284.999359,119.675331 285.027954,129.317917 284.982880,138.960159 
	C284.969147,141.899124 284.643860,144.735626 279.979065,143.761765 
	C279.979065,139.289246 279.979065,134.710678 279.979065,131.031128 
	C274.326630,131.031128 269.056396,131.633591 263.999725,130.852997 
	C259.414032,130.145111 255.167160,123.997803 255.030746,119.423157 
	C254.892776,114.795944 255.000336,110.161423 255.000336,105.266769 
	C256.645599,105.266769 258.046753,105.266769 259.762604,105.266769 
	C259.836884,106.433563 259.860809,107.721779 260.010315,108.995255 
	C260.569824,113.761414 260.462097,118.759323 261.952057,123.220284 
	C263.484863,127.809586 268.257446,129.114868 272.460571,127.641685 
	C276.605621,126.188843 280.006744,123.069054 280.000824,117.873192 
	C279.996490,114.061218 279.999969,110.249229 279.999969,104.621109 
	C282.323944,106.723396 283.654633,107.927155 284.992188,109.581894 
z"/>
<path fill="#FFFFFF" opacity="1.000000" stroke="none" 
	d="
M138.895782,104.000000 
	C147.454803,104.142365 153.902130,110.539764 153.077774,118.235214 
	C152.638962,122.331505 153.000000,126.513474 153.000000,130.422882 
	C146.846771,130.963562 140.891541,132.494980 135.247375,131.730316 
	C128.018951,130.751038 122.899132,126.325951 123.967010,115.428749 
	C124.629593,108.667381 130.351578,104.011925 138.895782,104.000000 
M146.991821,123.091835 
	C147.325073,120.540413 148.106110,117.950684 147.891907,115.446075 
	C147.524323,111.148270 141.146255,107.098595 136.858551,108.026611 
	C131.071472,109.279137 127.174072,115.114143 128.491165,120.069977 
	C130.545029,127.798073 140.777039,131.229752 146.991821,123.091835 
z"/>
<path fill="#FFFFFF" opacity="1.000000" stroke="none" 
	d="
M250.054718,127.035400 
	C250.705566,128.492432 250.922470,129.918777 251.137146,131.330505 
	C244.560730,132.620956 240.230881,128.987228 240.025269,122.110680 
	C239.891449,117.634880 240.000061,113.151825 240.000061,109.070511 
	C237.929031,107.924362 236.147720,106.938545 234.366409,105.952728 
	C234.582092,105.430885 234.797760,104.909042 235.013443,104.387199 
	C236.554901,104.170357 238.096344,103.953514 239.837830,103.708527 
	C239.837830,101.021080 239.837830,98.396187 239.837830,95.223076 
	C241.534119,95.143700 243.046310,95.072929 244.815308,94.990143 
	C244.815308,97.943932 244.815308,100.562050 244.815308,102.348976 
	C246.571259,103.934441 247.782867,105.028419 248.994476,106.122406 
	C247.800430,107.035278 246.606400,107.948166 245.000076,109.176254 
	C245.000076,113.076469 245.058044,117.555847 244.980667,122.032883 
	C244.924759,125.267891 246.239075,127.059082 250.054718,127.035400 
z"/>
<path fill="#000000" opacity="1.000000" stroke="none" 
	d="
M210.790436,110.705399 
	C219.752518,106.392563 224.716431,108.060417 227.381561,115.781525 
	C221.028275,115.781525 214.629669,115.781525 207.402649,115.781525 
	C208.665192,113.839378 209.590805,112.415527 210.790436,110.705399 
z"/>
<path fill="#000000" opacity="1.000000" stroke="none" 
	d="
M146.839630,123.467758 
	C140.777039,131.229752 130.545029,127.798073 128.491165,120.069977 
	C127.174072,115.114143 131.071472,109.279137 136.858551,108.026611 
	C141.146255,107.098595 147.524323,111.148270 147.891907,115.446075 
	C148.106110,117.950684 147.325073,120.540413 146.839630,123.467758 
z"/>
</svg>