<svg version="1.1" id="Layer_1" xmlns="http://www.w3.org/2000/svg" xmlns:xlink="http://www.w3.org/1999/xlink" x="0px" y="0px"
	 width="100%" viewBox="0 0 726 150" enable-background="new 0 0 726 150" xml:space="preserve">
<path fill="#000000" opacity="1.000000" stroke="none" 
	d="
M0.999999,57.000000 
	C1.000000,38.338005 1.000000,19.676008 1.000000,1.010509 
	C242.934769,1.007006 484.869537,1.007006 726.902161,1.007006 
	C726.902161,50.922096 726.902161,100.844444 726.902161,150.883392 
	C485.000031,150.883392 243.000031,150.883392 1.000000,150.883392 
	C1.000000,125.587982 1.000000,100.260979 1.338526,74.233070 
	C3.791146,77.711975 5.424483,82.238495 8.130908,85.991104 
	C12.292656,91.761589 17.392818,96.724091 25.328613,99.090912 
	C16.633486,86.007675 13.754966,75.907745 18.075199,63.700447 
	C21.837370,83.860497 30.341110,100.036278 45.959248,112.362320 
	C42.126007,110.947685 38.292770,109.533058 34.185833,108.017418 
	C37.392845,117.947533 46.276089,124.712845 59.163784,122.981659 
	C66.106041,122.049126 74.509956,113.476471 74.438293,107.736671 
	C70.991020,108.923210 67.442055,110.144737 64.430222,111.181389 
	C70.254486,103.905823 77.099777,97.230949 81.577316,89.230888 
	C86.004723,81.320404 88.040871,72.071571 90.933960,63.948902 
	C94.605499,76.054573 91.861206,87.721497 83.661247,98.800163 
	C84.891678,98.702408 85.383980,98.783737 85.766769,98.615677 
	C108.522453,88.624519 114.464897,57.282959 96.754074,39.362724 
	C86.297928,28.782948 73.390266,26.870087 59.305588,30.268843 
	C56.761948,30.882647 54.013115,31.125860 51.410725,30.911711 
	C46.702961,30.524313 42.052551,29.457371 37.345783,29.037275 
	C20.973324,27.575979 5.307113,42.015217 2.916251,55.230099 
	C2.792651,55.913269 1.661866,56.414215 0.999999,57.000000 
M459.999969,77.479935 
	C460.012054,80.142220 459.603882,82.901283 460.186676,85.432152 
	C460.563965,87.070534 462.390076,88.375290 463.567017,89.829544 
	C464.701935,88.331505 466.477112,86.967392 466.824860,85.304703 
	C467.375854,82.670525 466.971741,79.836555 466.971741,77.087128 
	C467.454346,77.082840 467.936920,77.078560 468.419525,77.074280 
	C469.185394,79.937614 469.580872,82.979965 470.847687,85.601234 
	C471.689392,87.342926 473.774078,89.582573 475.307068,89.586143 
	C476.877136,89.589798 479.060822,87.430153 479.887909,85.697906 
	C481.229095,82.889000 481.682220,79.656075 482.510254,76.602158 
	C483.014374,76.683624 483.518524,76.765099 484.022644,76.846573 
	C484.022644,79.604301 484.006775,82.362137 484.027313,85.119713 
	C484.045929,87.621651 484.478760,90.348122 487.668365,89.612671 
	C489.038391,89.296761 490.747070,86.771584 490.827362,85.175957 
	C491.178192,78.204483 491.016541,71.205627 490.980133,64.217041 
	C490.965485,61.409206 491.374023,58.317974 487.104919,58.041981 
	C483.153625,57.786533 479.818390,58.028919 478.940186,63.021534 
	C478.277588,66.788490 477.053497,70.456680 476.079315,74.168831 
	C475.657257,74.131454 475.235199,74.094086 474.813141,74.056709 
	C473.827850,69.894554 472.929016,65.709496 471.834076,61.576389 
	C470.619385,56.991425 466.811584,58.076107 463.609406,58.118187 
	C460.393524,58.160446 460.027161,60.501431 460.022430,63.007961 
	C460.013947,67.500763 460.007355,71.993568 459.999969,77.479935 
M380.509277,90.000000 
	C386.176788,89.734062 392.831909,92.039719 395.565796,84.110069 
	C395.742188,83.598442 396.966675,83.317993 397.749176,83.168365 
	C400.906342,82.564690 402.308502,84.193344 403.802765,86.906006 
	C404.660522,88.463127 407.670319,88.834816 409.711304,89.740143 
	C410.115417,88.045616 411.168060,86.199699 410.813812,84.682198 
	C409.077820,77.245621 406.931854,69.905708 405.005707,62.512112 
	C404.169800,59.303524 402.315216,58.058285 398.923981,57.932968 
	C393.993744,57.750782 393.315582,61.220444 392.371735,64.572594 
	C390.502716,71.210701 388.742523,77.879440 386.964020,84.437202 
	C385.058777,84.260559 383.907074,84.126358 382.751526,84.051178 
	C376.045898,83.614967 376.037231,83.619713 376.004608,76.669685 
	C375.985107,72.513496 376.083618,68.354599 375.961945,64.201828 
	C375.888489,61.694443 376.700623,58.335117 372.608673,58.226345 
	C368.504486,58.117245 369.075378,61.413853 369.032074,63.980495 
	C368.945160,69.132851 369.000336,74.287636 369.000458,79.441414 
	C369.000671,89.993973 369.001617,89.993973 380.509277,90.000000 
M285.999146,82.360580 
	C285.991730,75.878075 285.968140,69.395531 285.984375,62.913078 
	C285.991486,60.067463 285.261902,58.004398 281.818085,58.090221 
	C278.619904,58.169918 278.023010,60.189339 278.024841,62.776260 
	C278.027191,66.124161 278.025452,69.472069 278.025452,72.819969 
	C275.272675,68.906250 273.684937,64.919350 272.075623,60.941189 
	C270.551941,57.174747 267.101379,57.571827 264.437683,58.347065 
	C262.949554,58.780174 261.258240,61.486237 261.170990,63.243198 
	C260.808624,70.538673 260.833984,77.871429 261.171478,85.169495 
	C261.245178,86.763062 262.948792,89.290688 264.318268,89.611786 
	C267.497742,90.357300 267.959045,87.643188 267.971039,85.138908 
	C267.991577,80.845123 267.976685,76.551163 267.976685,72.257278 
	C270.785522,76.536842 272.659332,80.799454 274.025360,85.219002 
	C275.434937,89.779381 278.627899,90.384331 282.584442,89.882446 
	C286.862610,89.339760 285.719452,85.949944 285.999146,82.360580 
M661.036011,77.670029 
	C662.269165,80.936073 662.896423,84.677711 664.952759,87.297592 
	C666.278687,88.986717 669.689453,89.497131 672.190613,89.560822 
	C673.080933,89.583488 674.788574,86.759651 674.847839,85.187134 
	C675.129822,77.704750 675.159790,70.197266 674.818787,62.719711 
	C674.747620,61.158775 672.935608,58.654434 671.566345,58.380253 
	C668.334534,57.733124 668.046692,60.540051 668.027954,62.995720 
	C668.000610,66.584412 668.020935,70.173462 668.020935,73.762367 
	C665.303101,69.663414 663.536926,65.427330 661.854187,61.158333 
	C660.373962,57.402744 657.038391,57.463207 654.322632,58.357456 
	C652.831665,58.848392 651.249023,61.584114 651.163269,63.377319 
	C650.813599,70.686890 650.833252,78.032646 651.186523,85.342392 
	C651.261169,86.887672 653.313660,88.337379 654.454895,89.831139 
	C655.625000,88.367661 657.614441,87.002792 657.804749,85.421364 
	C658.287964,81.406387 657.965271,77.294403 657.965271,73.221260 
	C658.281555,73.181534 658.597900,73.141808 658.914185,73.102089 
	C659.549622,74.394897 660.185059,75.687706 661.036011,77.670029 
M540.976379,62.840729 
	C540.934387,60.326862 540.570862,58.009815 537.248352,58.200775 
	C533.848328,58.396194 534.076416,61.029099 534.030701,63.345963 
	C533.967163,66.560913 534.014771,69.778053 534.014771,72.994247 
	C533.579895,73.047821 533.145020,73.101395 532.710144,73.154976 
	C531.164978,69.205948 529.642944,65.247704 528.068176,61.310524 
	C526.517090,57.432537 523.019348,57.408230 520.103821,58.389664 
	C518.654541,58.877502 517.241089,61.736992 517.149658,63.589657 
	C516.805847,70.555435 516.986023,77.548546 517.027222,84.531075 
	C517.042053,87.046585 516.890808,89.900696 520.621948,89.793320 
	C524.370239,89.685463 523.916443,86.714279 523.969788,84.284622 
	C524.052002,80.540947 523.991455,76.794144 523.991455,73.048668 
	C524.414001,72.978722 524.836609,72.908768 525.259155,72.838814 
	C526.960693,77.402466 528.763855,81.931503 530.332336,86.540428 
	C531.645325,90.398422 534.827332,90.604195 537.605713,89.660385 
	C539.117310,89.146919 540.737366,86.479767 540.832153,84.705147 
	C541.204041,77.742088 540.988831,70.747673 540.976379,62.840729 
M141.854813,59.393738 
	C134.819931,56.152615 132.050797,57.674370 132.010162,64.859047 
	C131.974442,71.175346 131.936371,77.493149 132.039444,83.807999 
	C132.080399,86.315880 131.308151,89.673309 135.399338,89.774231 
	C139.502167,89.875458 138.903931,86.577896 138.969254,84.012718 
	C139.062790,80.338943 138.993103,76.660995 138.993103,72.984833 
	C139.429169,72.952843 139.865250,72.920845 140.301315,72.888855 
	C141.913895,77.204231 143.634171,81.483269 145.106583,85.845947 
	C146.393707,89.659721 149.183533,90.254181 152.620834,89.890511 
	C156.246384,89.506927 155.961823,86.755730 155.973862,84.283539 
	C156.009491,76.970100 156.136200,69.648773 155.810883,62.349091 
	C155.747116,60.918091 153.816483,59.570293 152.746872,58.184116 
	C151.512436,59.571140 149.450409,60.829994 149.211731,62.371227 
	C148.675323,65.834953 149.043579,69.438774 149.043579,72.985573 
	C148.666595,73.014618 148.289627,73.043663 147.912643,73.072701 
	C146.053604,68.717018 144.194550,64.361336 141.854813,59.393738 
M622.627563,60.869930 
	C618.456177,56.694721 613.386169,57.330463 608.643372,58.971760 
	C603.848694,60.631039 603.063293,65.145874 603.017395,69.688927 
	C602.993835,72.019142 602.996277,74.349724 603.002258,76.680107 
	C603.033081,88.652985 609.557068,93.601112 621.084595,90.058563 
	C622.652832,89.576637 624.747559,87.314224 624.745483,85.878899 
	C624.739563,81.763443 623.800720,77.646263 623.140503,73.543961 
	C623.107605,73.339622 622.227051,73.114525 621.768738,73.162453 
	C619.511475,73.398567 617.263611,73.723610 615.012390,74.017258 
	C615.470276,76.051270 616.171936,78.069817 616.302307,80.124603 
	C616.392578,81.547424 615.694824,83.020218 615.349182,84.470688 
	C614.058533,83.751038 611.704834,83.105247 611.648865,82.299812 
	C611.275146,76.919472 610.897644,71.445335 611.541504,66.125114 
	C611.903503,63.133846 614.883179,62.560715 616.382996,65.614594 
	C618.008972,68.925362 620.468872,69.931358 623.183044,68.391617 
	C626.477966,66.522484 624.181213,63.813053 622.627563,60.869930 
M217.848602,86.987289 
	C218.070618,83.965828 218.292633,80.944366 218.514648,77.922905 
	C219.109436,77.709450 219.704224,77.495987 220.299011,77.282524 
	C221.484848,78.893608 222.860016,80.405212 223.779968,82.156006 
	C224.270218,83.088989 224.024902,84.435684 224.021545,85.595383 
	C224.013474,88.380836 225.123520,89.948860 228.148270,89.942017 
	C231.508484,89.934418 231.287537,87.762138 231.068283,85.504211 
	C230.797836,82.719154 230.481430,79.937767 230.265060,77.148567 
	C230.124084,75.331146 229.605759,73.327667 230.150574,71.708351 
	C233.055359,63.074360 229.675537,58.131073 220.498688,58.010483 
	C218.839691,57.988686 217.178986,58.067448 215.520691,58.029301 
	C212.385132,57.957161 211.003845,59.490978 211.021729,62.584724 
	C211.065826,70.218224 210.934677,77.854767 211.130096,85.483521 
	C211.165787,86.877159 212.202850,89.178673 213.150406,89.390022 
	C214.472260,89.684875 216.144913,88.406975 217.848602,86.987289 
M197.940964,90.722809 
	C203.390244,89.747086 206.682739,86.617920 206.885345,80.994026 
	C207.107086,74.839546 206.945038,68.671501 206.965286,62.509411 
	C206.974304,59.765362 205.990128,58.051811 202.898834,58.089825 
	C199.718552,58.128937 199.029602,60.080154 199.026154,62.711029 
	C199.019165,68.040710 199.301468,73.398354 198.820175,78.685822 
	C198.636292,80.705894 196.687103,82.565292 195.542389,84.497910 
	C194.378204,82.533508 192.403290,80.646027 192.208191,78.589684 
	C191.706818,73.305145 192.250793,67.924400 191.809708,62.629356 
	C191.679047,61.060902 189.662247,59.649563 188.509735,58.166229 
	C187.351013,59.643059 185.312363,61.052181 185.192581,62.608955 
	C184.772095,68.073685 184.991486,73.589272 185.005844,79.085457 
	C185.028625,87.799301 188.178894,90.838661 197.940964,90.722809 
M583.483154,84.934395 
	C588.070496,81.776512 589.728943,82.430130 592.778748,86.981056 
	C593.821472,88.536888 596.719971,88.849014 598.770569,89.729378 
	C599.150146,88.022636 600.165649,86.164345 599.801208,84.634956 
	C598.071716,77.378555 595.852844,70.240120 594.043945,63.000767 
	C593.196167,59.607994 591.623657,57.903774 587.897461,57.949730 
	C584.257751,57.994614 582.547485,59.486202 581.725952,62.981846 
	C580.474976,68.304565 578.716125,73.505722 577.307251,78.794281 
	C576.393616,82.224121 575.719055,85.717651 574.926453,89.230927 
	C579.399780,90.643173 582.131775,89.877357 583.483154,84.934395 
M238.912888,66.440262 
	C237.231720,72.517929 235.386703,78.558243 233.986847,84.700020 
	C233.645203,86.199020 234.763794,88.030846 235.210999,89.709641 
	C237.015488,88.928452 239.545456,88.651123 240.498611,87.278687 
	C244.582657,81.398186 246.856033,81.488678 251.025665,87.521667 
	C251.994232,88.923088 254.868759,89.007225 256.866302,89.697479 
	C257.271240,88.292473 258.280243,86.742149 257.982880,85.506088 
	C256.081665,77.602989 254.022232,69.731300 251.742615,61.928818 
	C250.670013,58.257595 245.275131,56.247612 242.505722,58.716358 
	C240.721649,60.306755 240.178024,63.288673 238.912888,66.440262 
M165.550415,90.262512 
	C166.853485,90.490540 168.167404,90.960625 169.457687,90.902901 
	C173.997299,90.699814 178.717239,90.471008 180.562531,85.200584 
	C182.293152,80.257622 180.380737,75.716843 175.481354,72.380585 
	C174.109695,71.446548 172.346436,70.895294 171.324844,69.691483 
	C170.217987,68.387177 168.713638,65.673889 169.213852,65.054924 
	C171.358154,62.401531 172.036850,65.645538 173.540558,66.428543 
	C175.296249,67.342751 177.726974,66.960617 179.864822,67.140930 
	C179.792770,65.302910 180.258911,63.215149 179.544357,61.675289 
	C177.656876,57.607899 173.702454,57.993233 170.003571,57.991886 
	C166.103470,57.990471 162.643799,58.608868 161.272018,62.977146 
	C159.832230,67.562057 160.686050,71.559540 164.522247,74.604424 
	C166.204315,75.939522 168.359833,76.713501 169.921936,78.152939 
	C171.130325,79.266426 171.872162,80.966942 172.536942,82.527657 
	C172.685989,82.877571 171.274063,84.309898 171.212982,84.270241 
	C169.962402,83.458229 168.931931,82.159966 167.595612,81.662804 
	C165.740753,80.972702 163.622589,80.495674 161.722336,80.741241 
	C161.192749,80.809669 160.357590,84.017174 160.868576,85.306763 
	C161.582825,87.109413 163.428314,88.463829 165.550415,90.262512 
M345.024536,85.169380 
	C344.961731,88.074661 345.873718,90.039719 349.274872,89.905602 
	C352.895447,89.762848 353.028107,87.228333 352.970917,84.628296 
	C352.892548,81.064125 353.119659,78.341042 357.863251,77.605453 
	C364.104401,76.637619 366.463959,72.795059 365.906158,66.560181 
	C365.367065,60.534416 362.725891,58.278652 355.846832,58.033566 
	C354.018311,57.968418 352.179993,58.109413 350.356049,57.996483 
	C346.555847,57.761185 344.899109,59.397953 344.976959,63.270126 
	C345.117462,70.257668 345.011627,77.250160 345.024536,85.169380 
M428.776978,79.945175 
	C427.328705,81.341591 425.880432,82.738007 424.432220,84.134430 
	C423.625092,82.116783 422.357330,80.152336 422.116791,78.069267 
	C421.737610,74.785881 421.818573,71.398514 422.165649,68.103722 
	C422.337158,66.475830 423.538452,64.956421 424.720856,62.434280 
	C426.000031,64.532913 426.676758,65.282585 426.951874,66.158386 
	C428.010193,69.527817 430.824860,69.588997 432.924957,68.388718 
	C433.993500,67.778038 434.404785,64.642975 433.937653,62.979107 
	C432.571899,58.114639 428.350586,57.990185 424.211823,58.014637 
	C419.547729,58.042187 415.416351,59.820728 414.925720,64.564178 
	C414.251923,71.078918 414.583771,77.754410 415.075958,84.316681 
	C415.547516,90.604187 427.047028,93.427803 432.308868,88.130676 
	C433.893066,86.535828 433.882080,83.356400 434.601837,80.902855 
	C432.863495,80.445648 431.125153,79.988449 428.776978,79.945175 
M696.576599,68.867996 
	C700.705933,68.402870 700.226257,65.651733 699.281433,62.993195 
	C697.739197,58.653934 694.204285,57.868279 690.038086,57.958263 
	C685.724426,58.051437 681.218689,58.876282 680.678467,63.509586 
	C679.868774,70.454514 679.929077,77.625946 680.691711,84.583519 
	C681.170166,88.947708 686.115906,91.283653 691.276794,90.891304 
	C695.362122,90.580719 698.976868,89.198509 699.621826,84.605156 
	C699.851196,82.971748 698.628418,81.134468 698.068542,79.390244 
	C696.338440,80.176483 694.544922,80.851288 692.899780,81.786926 
	C691.743774,82.444359 690.789734,83.456932 689.745544,84.310921 
	C688.924805,83.131813 687.476196,81.993256 687.396973,80.766258 
	C687.120178,76.481049 687.149841,72.154190 687.435608,67.867966 
	C687.520142,66.599815 688.833374,65.413574 689.583557,64.189827 
	C690.651917,65.001793 691.714478,65.821434 692.790222,66.623520 
	C693.795166,67.372833 694.813965,68.103539 696.576599,68.867996 
M638.496643,89.999893 
	C640.490234,89.966911 642.581665,90.289299 644.443359,89.776962 
	C645.700073,89.431122 646.632812,87.908417 647.710510,86.912163 
	C646.577820,85.966637 645.578491,84.680321 644.275391,84.170662 
	C642.951660,83.652939 641.098145,84.332352 639.900757,83.693108 
	C638.698181,83.051056 637.237305,81.380676 637.308044,80.249725 
	C637.395996,78.843796 638.766479,77.344933 639.928345,76.253952 
	C640.491821,75.724808 641.951477,76.282722 642.811157,75.905640 
	C644.154419,75.316505 645.332642,74.351067 646.580750,73.545082 
	C645.363037,72.710640 644.192810,71.789482 642.904602,71.083900 
	C642.380310,70.796745 641.397827,71.233772 640.972839,70.898643 
	C639.617920,69.830185 638.426941,68.553947 637.172607,67.357941 
	C638.355957,66.261131 639.424622,64.981071 640.768066,64.139977 
	C641.510193,63.675385 642.873840,64.244904 643.669983,63.815529 
	C644.820740,63.194931 645.710815,62.090946 646.712097,61.193214 
	C645.669006,60.165134 644.735840,58.430996 643.561157,58.248131 
	C640.636230,57.792778 637.594421,58.160694 634.612427,57.982430 
	C630.596008,57.742332 628.842163,59.385361 628.966125,63.502560 
	C629.146118,69.480606 628.996704,75.468338 629.002014,81.451927 
	C629.009521,89.950806 629.015076,89.950798 638.496643,89.999893 
M309.265808,67.706947 
	C310.694397,63.435165 309.732086,60.042767 305.278503,58.468323 
	C299.143555,56.299465 291.975342,58.198174 291.319427,63.074116 
	C290.322723,70.483696 290.497162,78.210236 291.398468,85.653900 
	C291.911499,89.890694 296.578461,90.900459 300.589142,90.881126 
	C304.400543,90.862755 308.190979,89.906380 309.526611,85.898590 
	C310.163239,83.988289 309.950836,80.319702 308.787598,79.597008 
	C306.480591,78.163719 303.669434,78.854485 302.697449,82.404396 
	C302.471161,83.230797 301.029022,84.347855 300.295837,84.246758 
	C299.465393,84.132263 298.189972,82.814224 298.167633,81.990730 
	C298.025635,76.758049 298.102966,71.514450 298.315186,66.282852 
	C298.344849,65.552551 299.588959,64.237328 300.135590,64.303886 
	C301.063904,64.416924 302.320648,65.231758 302.672363,66.072502 
	C303.962616,69.156754 306.038025,69.394066 309.265808,67.706947 
M438.067780,86.090424 
	C438.794861,87.278023 439.452606,89.436028 440.260406,89.493744 
	C445.044556,89.835564 449.867737,89.793556 454.666138,89.596230 
	C455.378937,89.566917 456.646454,87.962563 456.560394,87.212738 
	C456.440582,86.168732 455.475281,84.920189 454.519714,84.360939 
	C453.616608,83.832420 452.258972,84.012680 451.100189,84.002495 
	C448.366211,83.978455 446.094147,83.552330 446.083527,80.013321 
	C446.074158,76.885628 447.924042,76.303551 450.539886,75.880951 
	C451.981781,75.648003 453.231110,74.223114 454.567261,73.335594 
	C453.286377,72.561600 452.080139,71.339951 450.708374,71.111267 
	C448.220734,70.696594 445.541840,70.343697 446.389496,67.212952 
	C446.762543,65.835083 449.304962,64.987846 450.944977,64.042961 
	C451.463104,63.744442 452.436829,64.153984 452.874939,63.815769 
	C453.923676,63.006191 455.518158,61.934238 455.504639,60.988045 
	C455.490875,60.025017 453.917664,58.428406 452.849670,58.264133 
	C450.082581,57.838528 447.204315,58.206749 444.394897,57.968952 
	C439.724670,57.573662 437.737640,59.371773 437.935120,64.225471 
	C438.218903,71.199356 438.019318,78.192902 438.067780,86.090424 
M314.025848,85.185760 
	C313.861908,88.534004 315.443909,90.106461 318.803314,89.987000 
	C320.629059,89.922081 322.491669,90.209915 324.280304,89.947639 
	C326.928619,89.559334 331.250244,91.550728 331.517365,87.103668 
	C331.781708,82.702805 327.316162,84.877213 325.081696,83.830002 
	C323.497986,83.087799 322.415680,81.275749 321.109558,79.941231 
	C322.453033,78.642029 323.708954,77.227783 325.185547,76.103386 
	C325.733551,75.686127 326.910675,76.180496 327.602875,75.847488 
	C328.674103,75.332153 329.575348,74.463516 330.548676,73.744682 
	C329.574432,72.862595 328.712585,71.769753 327.587860,71.169769 
	C326.788788,70.743507 325.414490,71.321617 324.687836,70.849625 
	C323.361450,69.988121 322.324951,68.680397 321.167511,67.558807 
	C322.287689,66.403885 323.252808,64.994217 324.583160,64.184631 
	C325.453156,63.655167 327.027130,64.341568 327.973389,63.864174 
	C329.365112,63.162006 330.478058,61.907234 331.709747,60.887871 
	C330.400116,59.941135 329.180267,58.383511 327.762146,58.175148 
	C324.832703,57.744720 321.795837,58.094276 318.806396,58.009804 
	C315.449127,57.914932 313.971161,59.458382 314.003296,62.810753 
	C314.071838,69.957336 314.014709,77.105133 314.025848,85.185760 
M512.515198,58.639706 
	C508.219788,58.458870 503.901947,57.971733 499.642700,58.283928 
	C498.365509,58.377544 496.278137,60.661045 496.223145,62.009052 
	C495.897888,69.981903 495.923828,77.979446 496.197540,85.956131 
	C496.243073,87.283714 497.969757,89.531456 499.117218,89.665787 
	C503.051758,90.126343 507.090210,90.026733 511.051575,89.694267 
	C512.011780,89.613670 513.304443,87.916527 513.532227,86.779930 
	C513.668762,86.098740 512.185303,84.660431 511.164734,84.286743 
	C509.819489,83.794151 507.973480,84.456772 506.781708,83.811722 
	C505.320648,83.020950 503.406830,81.421265 503.364594,80.117050 
	C503.322388,78.812469 505.170135,77.202042 506.534210,76.190674 
	C507.320587,75.607628 508.917358,76.232811 509.916229,75.789246 
	C510.949493,75.330429 511.700684,74.236458 512.575256,73.420288 
	C511.647217,72.651871 510.828491,71.586380 509.762085,71.193947 
	C508.561737,70.752235 506.948975,71.281174 505.864014,70.717422 
	C504.749847,70.138481 503.273926,68.669083 503.370331,67.735405 
	C503.500549,66.474579 504.753510,64.920128 505.946075,64.293159 
	C507.151215,63.659565 508.876190,64.059143 510.363617,63.908871 
	C513.419067,63.600193 514.534851,62.108078 512.515198,58.639706 
M701.924622,59.488564 
	C704.034790,68.781830 710.277771,76.955658 709.370728,87.141037 
	C709.299927,87.936241 711.921570,89.737854 713.218750,89.670204 
	C714.487366,89.604042 716.764648,87.678154 716.705261,86.681328 
	C716.201965,78.223892 720.755249,71.402992 723.395569,63.955132 
	C723.969543,62.335964 723.845459,59.044289 722.985352,58.608063 
	C720.369629,57.281460 717.868103,58.184490 716.698547,61.384052 
	C715.856140,63.688770 714.786194,65.910347 713.507446,68.892525 
	C712.394958,66.282066 711.469910,64.391006 710.773010,62.419289 
	C709.214294,58.009628 706.355896,56.961452 701.924622,59.488564 
M552.551575,58.000046 
	C550.722900,58.017990 548.778748,57.657612 547.100769,58.169479 
	C545.669800,58.605976 544.544800,60.045338 543.284424,61.041058 
	C544.394775,62.013908 545.432373,63.702984 546.629272,63.824715 
	C550.157776,64.183578 551.040100,66.093910 551.005005,69.190598 
	C550.942932,74.676292 550.767090,80.184517 551.212769,85.636421 
	C551.333740,87.115959 553.511292,88.427383 554.744934,89.815979 
	C555.815186,88.429886 557.696716,87.106224 557.809082,85.646416 
	C558.203369,80.521362 558.033508,75.349083 557.989197,70.195488 
	C557.961853,67.014069 558.073242,64.201195 562.319092,63.699459 
	C563.226257,63.592262 564.679871,61.538181 564.510010,60.640499 
	C564.320679,59.639400 562.648621,58.387562 561.476929,58.211845 
	C558.871155,57.821072 556.174988,58.033470 552.551575,58.000046 
M120.000000,75.493858 
	C120.019051,78.971786 119.648369,82.517395 120.235161,85.896744 
	C120.496208,87.400078 122.687424,88.568260 124.002556,89.888565 
	C125.316063,88.566559 127.702682,87.293747 127.765915,85.914429 
	C128.129593,77.981461 128.129562,70.014709 127.765594,62.081764 
	C127.702362,60.703609 125.313454,59.432163 123.998734,58.111427 
	C122.684814,59.433006 120.431046,60.630394 120.236862,62.099934 
	C119.698799,66.171791 120.018997,70.357063 120.000000,75.493858 
z"/>
<path fill="#D11241" opacity="1.000000" stroke="none" 
	d="
M0.999999,57.467606 
	C1.661866,56.414215 2.792651,55.913269 2.916251,55.230099 
	C5.307113,42.015217 20.973324,27.575979 37.345783,29.037275 
	C42.052551,29.457371 46.702961,30.524313 51.410725,30.911711 
	C54.013115,31.125860 56.761948,30.882647 59.305588,30.268843 
	C73.390266,26.870087 86.297928,28.782948 96.754074,39.362724 
	C114.464897,57.282959 108.522453,88.624519 85.766769,98.615677 
	C85.383980,98.783737 84.891678,98.702408 83.661247,98.800163 
	C91.861206,87.721497 94.605499,76.054573 90.933960,63.948902 
	C88.040871,72.071571 86.004723,81.320404 81.577316,89.230888 
	C77.099777,97.230949 70.254486,103.905823 64.430222,111.181389 
	C67.442055,110.144737 70.991020,108.923210 74.438293,107.736671 
	C74.509956,113.476471 66.106041,122.049126 59.163784,122.981659 
	C46.276089,124.712845 37.392845,117.947533 34.185833,108.017418 
	C38.292770,109.533058 42.126007,110.947685 45.959248,112.362320 
	C30.341110,100.036278 21.837370,83.860497 18.075199,63.700447 
	C13.754966,75.907745 16.633486,86.007675 25.328613,99.090912 
	C17.392818,96.724091 12.292656,91.761589 8.130908,85.991104 
	C5.424483,82.238495 3.791146,77.711975 1.338526,73.766083 
	C1.000000,68.645073 1.000000,63.290142 0.999999,57.467606 
M57.425697,55.000000 
	C51.552330,55.000000 45.678967,55.000000 39.813549,55.000000 
	C47.229103,67.992844 47.347271,80.379066 39.948730,92.679527 
	C49.127708,92.679527 58.147717,92.679527 67.345764,92.679527 
	C60.121605,80.084389 59.614552,67.803215 67.290215,55.000000 
	C64.228233,55.000000 61.309380,55.000000 57.425697,55.000000 
M57.213615,40.021244 
	C63.316200,41.151321 69.418785,42.281399 75.566116,43.419765 
	C64.312027,34.895432 44.827477,34.583317 35.602959,42.257812 
	C42.085670,41.551807 49.189697,40.778133 57.213615,40.021244 
z"/>
<path fill="#231F20" opacity="1.000000" stroke="none" 
	d="
M460.000000,76.983154 
	C460.007355,71.993568 460.013947,67.500763 460.022430,63.007961 
	C460.027161,60.501431 460.393524,58.160446 463.609406,58.118187 
	C466.811584,58.076107 470.619385,56.991425 471.834076,61.576389 
	C472.929016,65.709496 473.827850,69.894554 474.813141,74.056709 
	C475.235199,74.094086 475.657257,74.131454 476.079315,74.168831 
	C477.053497,70.456680 478.277588,66.788490 478.940186,63.021534 
	C479.818390,58.028919 483.153625,57.786533 487.104919,58.041981 
	C491.374023,58.317974 490.965485,61.409206 490.980133,64.217041 
	C491.016541,71.205627 491.178192,78.204483 490.827362,85.175957 
	C490.747070,86.771584 489.038391,89.296761 487.668365,89.612671 
	C484.478760,90.348122 484.045929,87.621651 484.027313,85.119713 
	C484.006775,82.362137 484.022644,79.604301 484.022644,76.846573 
	C483.518524,76.765099 483.014374,76.683624 482.510254,76.602158 
	C481.682220,79.656075 481.229095,82.889000 479.887909,85.697906 
	C479.060822,87.430153 476.877136,89.589798 475.307068,89.586143 
	C473.774078,89.582573 471.689392,87.342926 470.847687,85.601234 
	C469.580872,82.979965 469.185394,79.937614 468.419525,77.074280 
	C467.936920,77.078560 467.454346,77.082840 466.971741,77.087128 
	C466.971741,79.836555 467.375854,82.670525 466.824860,85.304703 
	C466.477112,86.967392 464.701935,88.331505 463.567017,89.829544 
	C462.390076,88.375290 460.563965,87.070534 460.186676,85.432152 
	C459.603882,82.901283 460.012054,80.142220 460.000000,76.983154 
z"/>
<path fill="#231F20" opacity="1.000000" stroke="none" 
	d="
M380.020020,90.000000 
	C369.001617,89.993973 369.000671,89.993973 369.000458,79.441414 
	C369.000336,74.287636 368.945160,69.132851 369.032074,63.980495 
	C369.075378,61.413853 368.504486,58.117245 372.608673,58.226345 
	C376.700623,58.335117 375.888489,61.694443 375.961945,64.201828 
	C376.083618,68.354599 375.985107,72.513496 376.004608,76.669685 
	C376.037231,83.619713 376.045898,83.614967 382.751526,84.051178 
	C383.907074,84.126358 385.058777,84.260559 386.964020,84.437202 
	C388.742523,77.879440 390.502716,71.210701 392.371735,64.572594 
	C393.315582,61.220444 393.993744,57.750782 398.923981,57.932968 
	C402.315216,58.058285 404.169800,59.303524 405.005707,62.512112 
	C406.931854,69.905708 409.077820,77.245621 410.813812,84.682198 
	C411.168060,86.199699 410.115417,88.045616 409.711304,89.740143 
	C407.670319,88.834816 404.660522,88.463127 403.802765,86.906006 
	C402.308502,84.193344 400.906342,82.564690 397.749176,83.168365 
	C396.966675,83.317993 395.742188,83.598442 395.565796,84.110069 
	C392.831909,92.039719 386.176788,89.734062 380.020020,90.000000 
M397.380890,72.414116 
	C397.527649,74.103523 397.656219,75.795547 397.898682,77.471100 
	C397.906921,77.528084 399.590607,77.473961 399.600281,77.379883 
	C399.771637,75.711990 399.932892,74.020515 399.812073,72.354752 
	C399.752411,71.532181 399.116913,70.751373 398.498993,69.433464 
	C398.033875,70.654984 397.807831,71.248604 397.380890,72.414116 
z"/>
<path fill="#231F20" opacity="1.000000" stroke="none" 
	d="
M285.998138,82.836380 
	C285.719452,85.949944 286.862610,89.339760 282.584442,89.882446 
	C278.627899,90.384331 275.434937,89.779381 274.025360,85.219002 
	C272.659332,80.799454 270.785522,76.536842 267.976685,72.257278 
	C267.976685,76.551163 267.991577,80.845123 267.971039,85.138908 
	C267.959045,87.643188 267.497742,90.357300 264.318268,89.611786 
	C262.948792,89.290688 261.245178,86.763062 261.171478,85.169495 
	C260.833984,77.871429 260.808624,70.538673 261.170990,63.243198 
	C261.258240,61.486237 262.949554,58.780174 264.437683,58.347065 
	C267.101379,57.571827 270.551941,57.174747 272.075623,60.941189 
	C273.684937,64.919350 275.272675,68.906250 278.025452,72.819969 
	C278.025452,69.472069 278.027191,66.124161 278.024841,62.776260 
	C278.023010,60.189339 278.619904,58.169918 281.818085,58.090221 
	C285.261902,58.004398 285.991486,60.067463 285.984375,62.913078 
	C285.968140,69.395531 285.991730,75.878075 285.998138,82.836380 
z"/>
<path fill="#231F20" opacity="1.000000" stroke="none" 
	d="
M660.928223,77.325272 
	C660.185059,75.687706 659.549622,74.394897 658.914185,73.102089 
	C658.597900,73.141808 658.281555,73.181534 657.965271,73.221260 
	C657.965271,77.294403 658.287964,81.406387 657.804749,85.421364 
	C657.614441,87.002792 655.625000,88.367661 654.454834,89.831131 
	C653.313660,88.337379 651.261169,86.887672 651.186523,85.342392 
	C650.833252,78.032646 650.813599,70.686890 651.163269,63.377319 
	C651.249023,61.584114 652.831665,58.848392 654.322632,58.357456 
	C657.038391,57.463207 660.373962,57.402744 661.854187,61.158333 
	C663.536926,65.427330 665.303101,69.663414 668.020935,73.762367 
	C668.020935,70.173462 668.000610,66.584412 668.027954,62.995720 
	C668.046692,60.540051 668.334534,57.733124 671.566345,58.380253 
	C672.935608,58.654434 674.747620,61.158775 674.818787,62.719711 
	C675.159790,70.197266 675.129822,77.704750 674.847839,85.187134 
	C674.788574,86.759651 673.080933,89.583488 672.190613,89.560822 
	C669.689453,89.497131 666.278687,88.986717 664.952759,87.297592 
	C662.896423,84.677711 662.269165,80.936073 660.928223,77.325272 
z"/>
<path fill="#231F20" opacity="1.000000" stroke="none" 
	d="
M540.984009,63.302818 
	C540.988831,70.747673 541.204041,77.742088 540.832153,84.705147 
	C540.737366,86.479767 539.117310,89.146919 537.605713,89.660385 
	C534.827332,90.604195 531.645325,90.398422 530.332336,86.540428 
	C528.763855,81.931503 526.960693,77.402466 525.259155,72.838814 
	C524.836609,72.908768 524.414001,72.978722 523.991455,73.048668 
	C523.991455,76.794144 524.052002,80.540947 523.969788,84.284622 
	C523.916443,86.714279 524.370239,89.685463 520.621948,89.793320 
	C516.890808,89.900696 517.042053,87.046585 517.027222,84.531075 
	C516.986023,77.548546 516.805847,70.555435 517.149658,63.589657 
	C517.241089,61.736992 518.654541,58.877502 520.103821,58.389664 
	C523.019348,57.408230 526.517090,57.432537 528.068176,61.310524 
	C529.642944,65.247704 531.164978,69.205948 532.710144,73.154976 
	C533.145020,73.101395 533.579895,73.047821 534.014771,72.994247 
	C534.014771,69.778053 533.967163,66.560913 534.030701,63.345963 
	C534.076416,61.029099 533.848328,58.396194 537.248352,58.200775 
	C540.570862,58.009815 540.934387,60.326862 540.984009,63.302818 
z"/>
<path fill="#231F20" opacity="1.000000" stroke="none" 
	d="
M142.095154,59.699696 
	C144.194550,64.361336 146.053604,68.717018 147.912643,73.072701 
	C148.289627,73.043663 148.666595,73.014618 149.043579,72.985573 
	C149.043579,69.438774 148.675323,65.834953 149.211731,62.371227 
	C149.450409,60.829994 151.512436,59.571140 152.746872,58.184120 
	C153.816483,59.570293 155.747116,60.918091 155.810883,62.349091 
	C156.136200,69.648773 156.009491,76.970100 155.973862,84.283539 
	C155.961823,86.755730 156.246384,89.506927 152.620834,89.890511 
	C149.183533,90.254181 146.393707,89.659721 145.106583,85.845947 
	C143.634171,81.483269 141.913895,77.204231 140.301315,72.888855 
	C139.865250,72.920845 139.429169,72.952843 138.993103,72.984833 
	C138.993103,76.660995 139.062790,80.338943 138.969254,84.012718 
	C138.903931,86.577896 139.502167,89.875458 135.399338,89.774231 
	C131.308151,89.673309 132.080399,86.315880 132.039444,83.807999 
	C131.936371,77.493149 131.974442,71.175346 132.010162,64.859047 
	C132.050797,57.674370 134.819931,56.152615 142.095154,59.699696 
z"/>
<path fill="#231F20" opacity="1.000000" stroke="none" 
	d="
M622.848022,61.185200 
	C624.181213,63.813053 626.477966,66.522484 623.183044,68.391617 
	C620.468872,69.931358 618.008972,68.925362 616.382996,65.614594 
	C614.883179,62.560715 611.903503,63.133846 611.541504,66.125114 
	C610.897644,71.445335 611.275146,76.919472 611.648865,82.299812 
	C611.704834,83.105247 614.058533,83.751038 615.349182,84.470688 
	C615.694824,83.020218 616.392578,81.547424 616.302307,80.124603 
	C616.171936,78.069817 615.470276,76.051270 615.012390,74.017258 
	C617.263611,73.723610 619.511475,73.398567 621.768738,73.162453 
	C622.227051,73.114525 623.107605,73.339622 623.140503,73.543961 
	C623.800720,77.646263 624.739563,81.763443 624.745483,85.878899 
	C624.747559,87.314224 622.652832,89.576637 621.084595,90.058563 
	C609.557068,93.601112 603.033081,88.652985 603.002258,76.680107 
	C602.996277,74.349724 602.993835,72.019142 603.017395,69.688927 
	C603.063293,65.145874 603.848694,60.631039 608.643372,58.971760 
	C613.386169,57.330463 618.456177,56.694721 622.848022,61.185200 
z"/>
<path fill="#231F20" opacity="1.000000" stroke="none" 
	d="
M217.758026,87.394699 
	C216.144913,88.406975 214.472260,89.684875 213.150406,89.390022 
	C212.202850,89.178673 211.165787,86.877159 211.130096,85.483521 
	C210.934677,77.854767 211.065826,70.218224 211.021729,62.584724 
	C211.003845,59.490978 212.385132,57.957161 215.520691,58.029301 
	C217.178986,58.067448 218.839691,57.988686 220.498688,58.010483 
	C229.675537,58.131073 233.055359,63.074360 230.150574,71.708351 
	C229.605759,73.327667 230.124084,75.331146 230.265060,77.148567 
	C230.481430,79.937767 230.797836,82.719154 231.068283,85.504211 
	C231.287537,87.762138 231.508484,89.934418 228.148270,89.942017 
	C225.123520,89.948860 224.013474,88.380836 224.021545,85.595383 
	C224.024902,84.435684 224.270218,83.088989 223.779968,82.156006 
	C222.860016,80.405212 221.484848,78.893608 220.299011,77.282524 
	C219.704224,77.495987 219.109436,77.709450 218.514648,77.922905 
	C218.292633,80.944366 218.070618,83.965828 217.758026,87.394699 
M222.106277,65.137497 
	C219.635376,63.585388 218.186493,64.648499 218.236450,67.174538 
	C218.264526,68.593987 219.521484,69.989128 220.224777,71.395218 
	C221.212128,70.090675 222.292938,68.841606 223.122726,67.443558 
	C223.336777,67.082893 222.762085,66.254105 222.106277,65.137497 
z"/>
<path fill="#231F20" opacity="1.000000" stroke="none" 
	d="
M197.538849,90.782455 
	C188.178894,90.838661 185.028625,87.799301 185.005844,79.085457 
	C184.991486,73.589272 184.772095,68.073685 185.192581,62.608955 
	C185.312363,61.052181 187.351013,59.643059 188.509735,58.166229 
	C189.662247,59.649563 191.679047,61.060902 191.809708,62.629356 
	C192.250793,67.924400 191.706818,73.305145 192.208191,78.589684 
	C192.403290,80.646027 194.378204,82.533508 195.542389,84.497910 
	C196.687103,82.565292 198.636292,80.705894 198.820175,78.685822 
	C199.301468,73.398354 199.019165,68.040710 199.026154,62.711029 
	C199.029602,60.080154 199.718552,58.128937 202.898834,58.089825 
	C205.990128,58.051811 206.974304,59.765362 206.965286,62.509411 
	C206.945038,68.671501 207.107086,74.839546 206.885345,80.994026 
	C206.682739,86.617920 203.390244,89.747086 197.538849,90.782455 
z"/>
<path fill="#231F20" opacity="1.000000" stroke="none" 
	d="
M583.328247,85.292542 
	C582.131775,89.877357 579.399780,90.643173 574.926453,89.230927 
	C575.719055,85.717651 576.393616,82.224121 577.307251,78.794281 
	C578.716125,73.505722 580.474976,68.304565 581.725952,62.981846 
	C582.547485,59.486202 584.257751,57.994614 587.897461,57.949730 
	C591.623657,57.903774 593.196167,59.607994 594.043945,63.000767 
	C595.852844,70.240120 598.071716,77.378555 599.801208,84.634956 
	C600.165649,86.164345 599.150146,88.022636 598.770569,89.729378 
	C596.719971,88.849014 593.821472,88.536888 592.778748,86.981056 
	C589.728943,82.430130 588.070496,81.776512 583.328247,85.292542 
M587.643066,71.495522 
	C587.144592,73.374802 586.646057,75.254074 586.147583,77.133354 
	C586.898254,77.251488 587.648926,77.369621 588.399597,77.487747 
	C588.438416,75.654739 588.483704,73.821785 588.501221,71.988564 
	C588.502380,71.870392 588.289246,71.750168 587.643066,71.495522 
z"/>
<path fill="#231F20" opacity="1.000000" stroke="none" 
	d="
M238.995667,66.043594 
	C240.178024,63.288673 240.721649,60.306755 242.505722,58.716358 
	C245.275131,56.247612 250.670013,58.257595 251.742615,61.928818 
	C254.022232,69.731300 256.081665,77.602989 257.982880,85.506088 
	C258.280243,86.742149 257.271240,88.292473 256.866302,89.697479 
	C254.868759,89.007225 251.994232,88.923088 251.025665,87.521667 
	C246.856033,81.488678 244.582657,81.398186 240.498611,87.278687 
	C239.545456,88.651123 237.015488,88.928452 235.210999,89.709641 
	C234.763794,88.030846 233.645203,86.199020 233.986847,84.700020 
	C235.386703,78.558243 237.231720,72.517929 238.995667,66.043594 
M246.356277,77.578278 
	C246.356277,75.091530 246.356277,72.604790 246.356277,70.118042 
	C245.560318,70.233116 244.764343,70.348183 243.968384,70.463257 
	C244.563385,72.874191 245.158401,75.285118 246.356277,77.578278 
z"/>
<path fill="#231F20" opacity="1.000000" stroke="none" 
	d="
M165.170105,90.136261 
	C163.428314,88.463829 161.582825,87.109413 160.868576,85.306763 
	C160.357590,84.017174 161.192749,80.809669 161.722336,80.741241 
	C163.622589,80.495674 165.740753,80.972702 167.595612,81.662804 
	C168.931931,82.159966 169.962402,83.458229 171.212982,84.270241 
	C171.274063,84.309898 172.685989,82.877571 172.536942,82.527657 
	C171.872162,80.966942 171.130325,79.266426 169.921936,78.152939 
	C168.359833,76.713501 166.204315,75.939522 164.522247,74.604424 
	C160.686050,71.559540 159.832230,67.562057 161.272018,62.977146 
	C162.643799,58.608868 166.103470,57.990471 170.003571,57.991886 
	C173.702454,57.993233 177.656876,57.607899 179.544357,61.675289 
	C180.258911,63.215149 179.792770,65.302910 179.864807,67.140930 
	C177.726974,66.960617 175.296249,67.342751 173.540558,66.428543 
	C172.036850,65.645538 171.358154,62.401531 169.213852,65.054924 
	C168.713638,65.673889 170.217987,68.387177 171.324844,69.691483 
	C172.346436,70.895294 174.109695,71.446548 175.481354,72.380585 
	C180.380737,75.716843 182.293152,80.257622 180.562531,85.200584 
	C178.717239,90.471008 173.997299,90.699814 169.457687,90.902901 
	C168.167404,90.960625 166.853485,90.490540 165.170105,90.136261 
z"/>
<path fill="#231F20" opacity="1.000000" stroke="none" 
	d="
M345.016602,84.704987 
	C345.011627,77.250160 345.117462,70.257668 344.976959,63.270126 
	C344.899109,59.397953 346.555847,57.761185 350.356049,57.996483 
	C352.179993,58.109413 354.018311,57.968418 355.846832,58.033566 
	C362.725891,58.278652 365.367065,60.534416 365.906158,66.560181 
	C366.463959,72.795059 364.104401,76.637619 357.863251,77.605453 
	C353.119659,78.341042 352.892548,81.064125 352.970917,84.628296 
	C353.028107,87.228333 352.895447,89.762848 349.274872,89.905602 
	C345.873718,90.039719 344.961731,88.074661 345.016602,84.704987 
M357.792511,67.476883 
	C356.763519,66.505440 355.734558,65.533989 354.705597,64.562531 
	C354.163269,65.666580 353.221619,66.759712 353.191010,67.877754 
	C353.160553,68.992035 354.043884,70.131302 354.526550,71.259613 
	C355.602570,70.242729 356.678619,69.225853 357.792511,67.476883 
z"/>
<path fill="#231F20" opacity="1.000000" stroke="none" 
	d="
M429.081909,79.738205 
	C431.125153,79.988449 432.863495,80.445648 434.601807,80.902847 
	C433.882080,83.356400 433.893066,86.535828 432.308868,88.130676 
	C427.047028,93.427803 415.547516,90.604187 415.075958,84.316681 
	C414.583771,77.754410 414.251923,71.078918 414.925720,64.564178 
	C415.416351,59.820728 419.547729,58.042187 424.211823,58.014637 
	C428.350586,57.990185 432.571899,58.114639 433.937653,62.979107 
	C434.404785,64.642975 433.993500,67.778038 432.924957,68.388718 
	C430.824860,69.588997 428.010193,69.527817 426.951874,66.158386 
	C426.676758,65.282585 426.000031,64.532913 424.720856,62.434280 
	C423.538452,64.956421 422.337158,66.475830 422.165649,68.103722 
	C421.818573,71.398514 421.737610,74.785881 422.116791,78.069267 
	C422.357330,80.152336 423.625092,82.116783 424.432190,84.134430 
	C425.880432,82.738007 427.328705,81.341591 429.081909,79.738205 
z"/>
<path fill="#231F20" opacity="1.000000" stroke="none" 
	d="
M696.201660,68.855217 
	C694.813965,68.103539 693.795166,67.372833 692.790222,66.623520 
	C691.714478,65.821434 690.651917,65.001793 689.583557,64.189819 
	C688.833374,65.413574 687.520142,66.599815 687.435608,67.867966 
	C687.149841,72.154190 687.120178,76.481049 687.396973,80.766258 
	C687.476196,81.993256 688.924805,83.131813 689.745544,84.310913 
	C690.789734,83.456932 691.743774,82.444359 692.899780,81.786926 
	C694.544922,80.851288 696.338440,80.176483 698.068542,79.390244 
	C698.628418,81.134468 699.851196,82.971748 699.621826,84.605156 
	C698.976868,89.198509 695.362122,90.580719 691.276794,90.891304 
	C686.115906,91.283653 681.170166,88.947708 680.691711,84.583519 
	C679.929077,77.625946 679.868774,70.454514 680.678467,63.509586 
	C681.218689,58.876282 685.724426,58.051437 690.038086,57.958263 
	C694.204285,57.868279 697.739197,58.653934 699.281433,62.993195 
	C700.226257,65.651733 700.705933,68.402870 696.201660,68.855217 
z"/>
<path fill="#231F20" opacity="1.000000" stroke="none" 
	d="
M638.022095,89.999817 
	C629.015076,89.950798 629.009521,89.950806 629.002014,81.451927 
	C628.996704,75.468338 629.146118,69.480606 628.966125,63.502560 
	C628.842163,59.385361 630.596008,57.742332 634.612427,57.982430 
	C637.594421,58.160694 640.636230,57.792778 643.561157,58.248131 
	C644.735840,58.430996 645.669006,60.165134 646.712097,61.193207 
	C645.710815,62.090946 644.820740,63.194931 643.669983,63.815529 
	C642.873840,64.244904 641.510193,63.675385 640.768066,64.139977 
	C639.424622,64.981071 638.355957,66.261131 637.172607,67.357948 
	C638.426941,68.553947 639.617920,69.830185 640.972839,70.898643 
	C641.397827,71.233772 642.380310,70.796745 642.904602,71.083900 
	C644.192810,71.789482 645.363037,72.710640 646.580750,73.545074 
	C645.332642,74.351067 644.154419,75.316505 642.811157,75.905640 
	C641.951477,76.282722 640.491821,75.724808 639.928345,76.253952 
	C638.766479,77.344933 637.395996,78.843796 637.308044,80.249725 
	C637.237305,81.380676 638.698181,83.051056 639.900757,83.693108 
	C641.098145,84.332352 642.951660,83.652939 644.275391,84.170662 
	C645.578491,84.680321 646.577820,85.966637 647.710510,86.912155 
	C646.632812,87.908417 645.700073,89.431122 644.443359,89.776962 
	C642.581665,90.289299 640.490234,89.966911 638.022095,89.999817 
z"/>
<path fill="#231F20" opacity="1.000000" stroke="none" 
	d="
M308.995514,67.977486 
	C306.038025,69.394066 303.962616,69.156754 302.672363,66.072502 
	C302.320648,65.231758 301.063904,64.416924 300.135590,64.303886 
	C299.588959,64.237328 298.344849,65.552551 298.315186,66.282852 
	C298.102966,71.514450 298.025635,76.758049 298.167633,81.990730 
	C298.189972,82.814224 299.465393,84.132263 300.295837,84.246758 
	C301.029022,84.347855 302.471161,83.230797 302.697449,82.404396 
	C303.669434,78.854485 306.480591,78.163719 308.787598,79.597008 
	C309.950836,80.319702 310.163239,83.988289 309.526611,85.898590 
	C308.190979,89.906380 304.400543,90.862755 300.589142,90.881126 
	C296.578461,90.900459 291.911499,89.890694 291.398468,85.653900 
	C290.497162,78.210236 290.322723,70.483696 291.319427,63.074116 
	C291.975342,58.198174 299.143555,56.299465 305.278503,58.468323 
	C309.732086,60.042767 310.694397,63.435165 308.995514,67.977486 
z"/>
<path fill="#231F20" opacity="1.000000" stroke="none" 
	d="
M438.046936,85.634239 
	C438.019318,78.192902 438.218903,71.199356 437.935120,64.225471 
	C437.737640,59.371773 439.724670,57.573662 444.394897,57.968952 
	C447.204315,58.206749 450.082581,57.838528 452.849670,58.264133 
	C453.917664,58.428406 455.490875,60.025017 455.504639,60.988045 
	C455.518158,61.934238 453.923676,63.006191 452.874939,63.815769 
	C452.436829,64.153984 451.463104,63.744442 450.944977,64.042961 
	C449.304962,64.987846 446.762543,65.835083 446.389496,67.212952 
	C445.541840,70.343697 448.220734,70.696594 450.708374,71.111267 
	C452.080139,71.339951 453.286377,72.561600 454.567261,73.335594 
	C453.231110,74.223114 451.981781,75.648003 450.539886,75.880951 
	C447.924042,76.303551 446.074158,76.885628 446.083527,80.013321 
	C446.094147,83.552330 448.366211,83.978455 451.100189,84.002495 
	C452.258972,84.012680 453.616608,83.832420 454.519714,84.360939 
	C455.475281,84.920189 456.440582,86.168732 456.560394,87.212738 
	C456.646454,87.962563 455.378937,89.566917 454.666138,89.596230 
	C449.867737,89.793556 445.044556,89.835564 440.260406,89.493744 
	C439.452606,89.436028 438.794861,87.278023 438.046936,85.634239 
z"/>
<path fill="#231F20" opacity="1.000000" stroke="none" 
	d="
M314.017456,84.719101 
	C314.014709,77.105133 314.071838,69.957336 314.003296,62.810753 
	C313.971161,59.458382 315.449127,57.914932 318.806396,58.009804 
	C321.795837,58.094276 324.832703,57.744720 327.762146,58.175148 
	C329.180267,58.383511 330.400116,59.941135 331.709747,60.887867 
	C330.478058,61.907234 329.365112,63.162006 327.973389,63.864174 
	C327.027130,64.341568 325.453156,63.655167 324.583160,64.184631 
	C323.252808,64.994217 322.287689,66.403885 321.167511,67.558807 
	C322.324951,68.680397 323.361450,69.988121 324.687836,70.849625 
	C325.414490,71.321617 326.788788,70.743507 327.587860,71.169769 
	C328.712585,71.769753 329.574432,72.862595 330.548676,73.744690 
	C329.575348,74.463516 328.674103,75.332153 327.602875,75.847488 
	C326.910675,76.180496 325.733551,75.686127 325.185547,76.103386 
	C323.708954,77.227783 322.453033,78.642029 321.109558,79.941238 
	C322.415680,81.275749 323.497986,83.087799 325.081696,83.830002 
	C327.316162,84.877213 331.781708,82.702805 331.517365,87.103668 
	C331.250244,91.550728 326.928619,89.559334 324.280304,89.947639 
	C322.491669,90.209915 320.629059,89.922081 318.803314,89.987000 
	C315.443909,90.106461 313.861908,88.534004 314.017456,84.719101 
z"/>
<path fill="#231F20" opacity="1.000000" stroke="none" 
	d="
M512.813599,58.905998 
	C514.534851,62.108078 513.419067,63.600193 510.363617,63.908871 
	C508.876190,64.059143 507.151215,63.659565 505.946075,64.293159 
	C504.753510,64.920128 503.500549,66.474579 503.370331,67.735405 
	C503.273926,68.669083 504.749847,70.138481 505.864014,70.717422 
	C506.948975,71.281174 508.561737,70.752235 509.762085,71.193947 
	C510.828491,71.586380 511.647217,72.651871 512.575256,73.420303 
	C511.700684,74.236458 510.949493,75.330429 509.916229,75.789246 
	C508.917358,76.232811 507.320587,75.607628 506.534210,76.190674 
	C505.170135,77.202042 503.322388,78.812469 503.364594,80.117050 
	C503.406830,81.421265 505.320648,83.020950 506.781708,83.811722 
	C507.973480,84.456772 509.819489,83.794151 511.164734,84.286743 
	C512.185303,84.660431 513.668762,86.098740 513.532227,86.779930 
	C513.304443,87.916527 512.011780,89.613670 511.051575,89.694267 
	C507.090210,90.026733 503.051758,90.126343 499.117218,89.665787 
	C497.969757,89.531456 496.243073,87.283714 496.197540,85.956131 
	C495.923828,77.979446 495.897888,69.981903 496.223145,62.009052 
	C496.278137,60.661045 498.365509,58.377544 499.642700,58.283928 
	C503.901947,57.971733 508.219788,58.458870 512.813599,58.905998 
z"/>
<path fill="#231F20" opacity="1.000000" stroke="none" 
	d="
M702.074280,59.185989 
	C706.355896,56.961452 709.214294,58.009628 710.773010,62.419289 
	C711.469910,64.391006 712.394958,66.282066 713.507446,68.892525 
	C714.786194,65.910347 715.856140,63.688770 716.698547,61.384052 
	C717.868103,58.184490 720.369629,57.281460 722.985352,58.608063 
	C723.845459,59.044289 723.969543,62.335964 723.395569,63.955132 
	C720.755249,71.402992 716.201965,78.223892 716.705261,86.681328 
	C716.764648,87.678154 714.487366,89.604042 713.218750,89.670204 
	C711.921570,89.737854 709.299927,87.936241 709.370728,87.141037 
	C710.277771,76.955658 704.034790,68.781830 702.074280,59.185989 
z"/>
<path fill="#231F20" opacity="1.000000" stroke="none" 
	d="
M553.033569,58.000027 
	C556.174988,58.033470 558.871155,57.821072 561.476929,58.211845 
	C562.648621,58.387562 564.320679,59.639400 564.510010,60.640499 
	C564.679871,61.538181 563.226257,63.592262 562.319092,63.699459 
	C558.073242,64.201195 557.961853,67.014069 557.989197,70.195488 
	C558.033508,75.349083 558.203369,80.521362 557.809082,85.646416 
	C557.696716,87.106224 555.815186,88.429886 554.744934,89.815979 
	C553.511292,88.427383 551.333740,87.115959 551.212769,85.636421 
	C550.767090,80.184517 550.942932,74.676292 551.005005,69.190598 
	C551.040100,66.093910 550.157776,64.183578 546.629272,63.824715 
	C545.432373,63.702984 544.394775,62.013908 543.284424,61.041061 
	C544.544800,60.045338 545.669800,58.605976 547.100769,58.169479 
	C548.778748,57.657612 550.722900,58.017990 553.033569,58.000027 
z"/>
<path fill="#231F20" opacity="1.000000" stroke="none" 
	d="
M120.000000,74.995682 
	C120.018997,70.357063 119.698799,66.171791 120.236862,62.099934 
	C120.431046,60.630394 122.684814,59.433006 123.998734,58.111427 
	C125.313454,59.432163 127.702362,60.703609 127.765594,62.081764 
	C128.129562,70.014709 128.129593,77.981461 127.765915,85.914429 
	C127.702682,87.293747 125.316063,88.566559 124.002556,89.888565 
	C122.687424,88.568260 120.496208,87.400078 120.235161,85.896744 
	C119.648369,82.517395 120.019051,78.971786 120.000000,74.995682 
z"/>
<path fill="#000000" opacity="1.000000" stroke="none" 
	d="
M57.908112,55.000000 
	C61.309380,55.000000 64.228233,55.000000 67.290215,55.000000 
	C59.614552,67.803215 60.121605,80.084389 67.345764,92.679527 
	C58.147717,92.679527 49.127708,92.679527 39.948730,92.679527 
	C47.347271,80.379066 47.229103,67.992844 39.813549,55.000000 
	C45.678967,55.000000 51.552330,55.000000 57.908112,55.000000 
z"/>
<path fill="#000000" opacity="1.000000" stroke="none" 
	d="
M56.753670,40.012852 
	C49.189697,40.778133 42.085670,41.551807 35.602959,42.257812 
	C44.827477,34.583317 64.312027,34.895432 75.566116,43.419765 
	C69.418785,42.281399 63.316200,41.151321 56.753670,40.012852 
z"/>
<path fill="#000000" opacity="1.000000" stroke="none" 
	d="
M397.481323,72.128166 
	C397.807831,71.248604 398.033875,70.654984 398.498993,69.433464 
	C399.116913,70.751373 399.752411,71.532181 399.812073,72.354752 
	C399.932892,74.020515 399.771637,75.711990 399.600281,77.379883 
	C399.590607,77.473961 397.906921,77.528084 397.898682,77.471100 
	C397.656219,75.795547 397.527649,74.103523 397.481323,72.128166 
z"/>
<path fill="#000000" opacity="1.000000" stroke="none" 
	d="
M222.328003,65.388931 
	C222.762085,66.254105 223.336777,67.082893 223.122726,67.443558 
	C222.292938,68.841606 221.212128,70.090675 220.224792,71.395218 
	C219.521484,69.989128 218.264526,68.593987 218.236450,67.174538 
	C218.186493,64.648499 219.635376,63.585388 222.328003,65.388931 
z"/>
<path fill="#000000" opacity="1.000000" stroke="none" 
	d="
M587.909424,71.563202 
	C588.289246,71.750168 588.502380,71.870392 588.501221,71.988564 
	C588.483704,73.821785 588.438416,75.654739 588.399597,77.487747 
	C587.648926,77.369621 586.898254,77.251488 586.147583,77.133354 
	C586.646057,75.254074 587.144592,73.374802 587.909424,71.563202 
z"/>
<path fill="#000000" opacity="1.000000" stroke="none" 
	d="
M246.054840,77.637161 
	C245.158401,75.285118 244.563385,72.874191 243.968384,70.463257 
	C244.764343,70.348183 245.560318,70.233116 246.356277,70.118042 
	C246.356277,72.604790 246.356277,75.091530 246.054840,77.637161 
z"/>
<path fill="#000000" opacity="1.000000" stroke="none" 
	d="
M357.773560,67.842926 
	C356.678619,69.225853 355.602570,70.242729 354.526550,71.259613 
	C354.043884,70.131302 353.160553,68.992035 353.191010,67.877754 
	C353.221619,66.759712 354.163269,65.666580 354.705597,64.562531 
	C355.734558,65.533989 356.763519,66.505440 357.773560,67.842926 
z"/>
</svg>